<svg xmlns="http://www.w3.org/2000/svg" xmlns:xlink="http://www.w3.org/1999/xlink" x="0px" y="0px"
	 viewBox="0 0 136 21" enable-background="new 0 0 136 21" xml:space="preserve">
	<g>
		<path id="logo_ch1" fill="#fff" d="M15.7,0v21h-3.5v-8.8H3.5V21H0V0h3.5v8.7h8.7V0H15.7z"/>
		<path id="logo_ch2" fill="#fff" d="M23,7.8C23,3.5,26.5,0,30.8,0c4.3,0,7.8,3.5,7.8,7.8c0,4.3-3.5,7.8-7.8,7.8C26.5,15.6,23,12.1,23,7.8z M37.6,21H23.8v-3.5
			h13.9V21z M26.5,7.8c0,2.4,1.9,4.3,4.3,4.3s4.3-1.9,4.3-4.3c0-2.4-1.9-4.3-4.3-4.3S26.5,5.4,26.5,7.8z"/>
		<path id="logo_ch3" fill="#fff" d="M54.7,3.5h-3.5V21h-3.5V3.5h-3.5V0h10.5V3.5z"/>
		<path id="logo_ch4" fill="#fff" d="M62.6,14.9h3.5c0.1,1.7,1.5,2.6,3.1,2.6c1.6,0,3.1-1,3.1-2.6c0-1.8-1.7-2.6-3.1-2.6c-0.2,0-1.6,0-3.1-0.7
			c-2.2-1-3.4-2.9-3.4-5.4c0-3.7,3.2-6.1,6.6-6.1c3.6,0,6.5,2.5,6.5,6.1h-3.5c-0.1-1.7-1.5-2.6-3.1-2.6c-1.6,0-3.1,0.9-3.1,2.6
			c0,1.7,1.5,2.6,3.1,2.6c0.1,0,1.6,0,3.1,0.7c2.2,1,3.4,2.9,3.4,5.4c0,3.7-3.1,6.1-6.5,6.1C65.6,20.9,62.7,18.5,62.6,14.9z"/>
		<path id="logo_ch5" fill="#fff" d="M92.9,3.5h-3.5V21h-3.5V3.5h-3.5V0h10.5V3.5z"/>
		<path id="logo_ch6" fill="#fff" d="M113.9,21h-3.8l-0.7-1.7h-7.8l-0.7,1.7h-3.8l8.4-21L113.9,21z M108,15.8l-2.5-6.3l-2.5,6.3H108z"/>
		<path id="logo_ch7" fill="#fff" d="M131.5,21l-5.5-8.8h-2V21h-3.5V8.8h3.3l-3.3-5.2V0h7c0,0,7,0,7,6.1c0,3.7-2.6,5.2-4.6,5.8l5.7,9.1H131.5z M128,8.7
			c0.9-0.1,3.1-0.5,3.1-2.6c0-2.6-3.5-2.6-3.5-2.6h-2.8L128,8.7z"/>
	</g>
</svg>