<svg xmlns="http://www.w3.org/2000/svg" xmlns:xlink="http://www.w3.org/1999/xlink" x="0px" y="0px"
	 viewBox="0 0 30 40" enable-background="new 0 0 30 40" xml:space="preserve">
	<g>
		<ellipse fill="#FFFFFF" cx="15" cy="13.1" rx="11.5" ry="11.4"/>
		<path fill="#42a5f6" d="M15,0C6.7,0,0,6.6,0,14.8C0,23,15,39.6,15,39.6S30,23,30,14.8C30,6.6,23.3,0,15,0z M15,24.5
			c-6.3,0-11.4-5.1-11.4-11.3C3.6,6.9,8.7,1.9,15,1.9c6.3,0,11.4,5.1,11.4,11.3C26.4,19.4,21.3,24.5,15,24.5z"/>
		<path fill="#42a5f6" d="M18.5,6.8l-0.3-0.2l-0.3,0.1v0l-3,1.5l-3.2-1.6L8.3,8.4v11.2l3.5-1.7l3.2,1.6l3.2-1.6l3.5,1.7V8.4L18.5,6.8
			L18.5,6.8z M11.5,17.4l-2.7,1.3v-10l2.7-1.3V17.4z M14.7,18.7L12,17.4v-10l2.7,1.3V18.7z M17.9,17.4l-2.7,1.3v-10l2.7-1.3V17.4z
			 M21.2,18.7l-2.7-1.3v-10l2.7,1.3V18.7z"/>
	</g>
</svg>