<?xml version="1.0" encoding="UTF-8" standalone="no"?>
<svg
   xmlns:dc="http://purl.org/dc/elements/1.1/"
   xmlns:cc="http://creativecommons.org/ns#"
   xmlns:rdf="http://www.w3.org/1999/02/22-rdf-syntax-ns#"
   xmlns:svg="http://www.w3.org/2000/svg"
   xmlns="http://www.w3.org/2000/svg"
   xmlns:sodipodi="http://sodipodi.sourceforge.net/DTD/sodipodi-0.dtd"
   xmlns:inkscape="http://www.inkscape.org/namespaces/inkscape"
   version="1.1"
   id="svg3655"
   viewBox="0 0 487.55627 172.2175"
   width="137.59921mm"
   height="48.603607mm"
   inkscape:version="0.91 r13725"
   sodipodi:docname="logo.svg">
  <sodipodi:namedview
     pagecolor="#ffffff"
     bordercolor="#666666"
     borderopacity="1"
     objecttolerance="10"
     gridtolerance="10"
     guidetolerance="10"
     inkscape:pageopacity="0"
     inkscape:pageshadow="2"
     inkscape:window-width="1881"
     inkscape:window-height="1056"
     id="namedview41"
     showgrid="false"
     inkscape:zoom="0.60095628"
     inkscape:cx="44.928393"
     inkscape:cy="86.108753"
     inkscape:window-x="39"
     inkscape:window-y="24"
     inkscape:window-maximized="1"
     inkscape:current-layer="svg3655" />
  <defs
     id="defs3661" />
  <metadata
     id="metadata3657">
    <rdf:RDF>
      <cc:Work
         rdf:about="">
        <dc:format>image/svg+xml</dc:format>
        <dc:type
           rdf:resource="http://purl.org/dc/dcmitype/StillImage" />
        <dc:title />
      </cc:Work>
    </rdf:RDF>
  </metadata>
  <g
     id="g3574"
     transform="matrix(1.25,0,0,-1.25,-616.57875,1031.7388)">
    <path
       id="path500"
       style="fill:#6f4323;fill-opacity:1;fill-rule:nonzero;stroke:none"
       d="m 584.144,693.261 0,3.631 2.853,0 c 1.466,0 2.311,-0.618 2.311,-1.795 l 0,-0.029 c 0,-1.114 -0.892,-1.807 -2.296,-1.807 l -2.868,0 z m 7.157,1.914 0,0.031 c 0,0.943 -0.336,1.731 -0.925,2.334 -0.718,0.681 -1.816,1.083 -3.219,1.083 l -4.973,0 0,-10.82 1.96,0 0,3.77 2.454,0 2.741,-3.77 2.311,0 -3.01,4.096 c 1.576,0.433 2.661,1.5 2.661,3.276" />
    <path
       id="path502"
       style="fill:#6f4323;fill-opacity:1;fill-rule:nonzero;stroke:none"
       d="m 595.657,692.409 5.596,0 0,1.7 -5.596,0 0,2.813 6.314,0 0,1.701 -8.273,0 0,-10.82 8.353,0 0,1.701 -6.394,0 0,2.905" />
    <path
       id="path504"
       style="fill:#6f4323;fill-opacity:1;fill-rule:nonzero;stroke:none"
       d="m 606.331,698.623 -1.961,0 0,-10.82 7.825,0 0,1.731 -5.864,0 0,9.089" />
    <path
       id="path506"
       style="fill:#6f4323;fill-opacity:1;fill-rule:nonzero;stroke:none"
       d="m 614.342,687.803 1.96094,0 0,10.8199 -1.96094,0 0,-10.8199 z" />
    <path
       id="path508"
       style="fill:#6f4323;fill-opacity:1;fill-rule:nonzero;stroke:none"
       d="m 622.194,692.098 1.913,4.331 1.929,-4.331 -3.842,0 z m 1.038,6.602 -4.909,-10.897 2.008,0 1.147,2.612 5.276,0 1.13,-2.612 2.072,0 -4.909,10.897 -1.815,0" />
    <path
       id="path510"
       style="fill:#6f4323;fill-opacity:1;fill-rule:nonzero;stroke:none"
       d="m 639.191,690.971 c 0,-0.991 -0.812,-1.484 -2.15,-1.484 l -3.252,0 0,2.967 3.108,0 c 1.545,0 2.294,-0.525 2.294,-1.453 l 0,-0.03 z m -5.402,5.966 2.821,0 c 1.276,0 1.959,-0.508 1.959,-1.376 l 0,-0.03 c 0,-0.989 -0.827,-1.467 -2.102,-1.467 l -2.678,0 0,2.873 z m 5.147,-3.507 c 0.844,0.399 1.594,1.112 1.594,2.412 l 0,0.03 c 0,0.709 -0.256,1.312 -0.75,1.793 -0.652,0.635 -1.624,0.958 -2.915,0.958 l -5.006,0 0,-10.82 5.166,0 c 2.485,0 4.127,1.035 4.127,2.967 l 0,0.031 c 0,1.47 -0.892,2.196 -2.216,2.629" />
    <path
       id="path512"
       style="fill:#6f4323;fill-opacity:1;fill-rule:nonzero;stroke:none"
       d="m 645.318,698.623 -1.958,0 0,-10.82 7.826,0 0,1.731 -5.868,0 0,9.089" />
    <path
       id="path514"
       style="fill:#6f4323;fill-opacity:1;fill-rule:nonzero;stroke:none"
       d="m 655.179,692.409 5.595,0 0,1.7 -5.595,0 0,2.813 6.312,0 0,1.701 -8.271,0 0,-10.82 8.35,0 0,1.701 -6.391,0 0,2.905" />
    <path
       id="path516"
       style="fill:#6f4323;fill-opacity:1;fill-rule:nonzero;stroke:none"
       d="m 673.864,692.194 2.853,0 0,-2.027 c -0.686,-0.494 -1.626,-0.819 -2.695,-0.819 -2.278,0 -3.791,1.64 -3.791,3.864 l 0,0.032 c 0,2.071 1.576,3.817 3.617,3.817 1.419,0 2.263,-0.447 3.125,-1.157 l 1.242,1.435 c -1.13,0.944 -2.344,1.471 -4.287,1.471 -3.379,0 -5.755,-2.568 -5.755,-5.598 l 0,-0.03 c 0,-3.153 2.297,-5.565 5.786,-5.565 1.992,0 3.538,0.772 4.653,1.686 l 0,4.543 -4.748,0 0,-1.652" />
    <path
       id="path518"
       style="fill:#6f4323;fill-opacity:1;fill-rule:nonzero;stroke:none"
       d="m 683.115,692.409 5.594,0 0,1.7 -5.594,0 0,2.813 6.311,0 0,1.701 -8.272,0 0,-10.82 8.352,0 0,1.701 -6.391,0 0,2.905" />
    <path
       id="path520"
       style="fill:#6f4323;fill-opacity:1;fill-rule:nonzero;stroke:none"
       d="m 700.942,693.182 c 0,-2.103 -1.546,-3.817 -3.761,-3.817 -2.231,0 -3.792,1.745 -3.792,3.847 l 0,0.032 c 0,2.102 1.545,3.817 3.761,3.817 2.231,0 3.792,-1.746 3.792,-3.849 l 0,-0.03 z m -3.761,5.628 c -3.427,0 -5.848,-2.568 -5.848,-5.598 l 0,-0.03 c 0,-3.046 2.391,-5.565 5.817,-5.565 3.426,0 5.848,2.567 5.848,5.595 l 0,0.032 c 0,3.044 -2.389,5.566 -5.817,5.566" />
    <path
       id="path522"
       style="fill:#6f4323;fill-opacity:1;fill-rule:nonzero;stroke:none"
       d="m 707.326,692.409 5.595,0 0,1.7 -5.595,0 0,2.813 6.31,0 0,1.701 -8.272,0 0,-10.82 8.354,0 0,1.701 -6.392,0 0,2.905" />
    <path
       id="path524"
       style="fill:#6f4323;fill-opacity:1;fill-rule:nonzero;stroke:none"
       d="m 725.47,698.623 -2.246,0 -2.789,-3.878 -2.772,3.878 -2.312,0 3.907,-5.319 -4.064,-5.501 2.245,0 2.95,4.096 2.931,-4.096 2.31,0 -4.049,5.533 3.889,5.287" />
    <path
       id="path526"
       style="fill:#6f4323;fill-opacity:1;fill-rule:nonzero;stroke:none"
       d="m 734.291,694.929 c 0,-1.129 -0.924,-1.932 -2.406,-1.932 l -2.28,0 0,3.895 2.28,0 c 1.467,0 2.406,-0.65 2.406,-1.933 l 0,-0.03 z m -2.246,3.694 -4.399,0 0,-10.82 1.959,0 0,3.479 2.217,0 c 2.469,0 4.461,1.281 4.461,3.693 l 0,0.031 c 0,2.178 -1.624,3.617 -4.238,3.617" />
    <path
       id="path528"
       style="fill:#6f4323;fill-opacity:1;fill-rule:nonzero;stroke:none"
       d="m 740.247,692.409 5.595,0 0,1.7 -5.595,0 0,2.813 6.31,0 0,1.701 -8.272,0 0,-10.82 8.353,0 0,1.701 -6.391,0 0,2.905" />
    <path
       id="path530"
       style="fill:#6f4323;fill-opacity:1;fill-rule:nonzero;stroke:none"
       d="m 750.919,693.261 0,3.631 2.853,0 c 1.464,0 2.309,-0.618 2.309,-1.795 l 0,-0.029 c 0,-1.114 -0.891,-1.807 -2.294,-1.807 l -2.868,0 z m 7.155,1.914 0,0.031 c 0,0.943 -0.333,1.731 -0.925,2.334 -0.718,0.681 -1.817,1.083 -3.217,1.083 l -4.976,0 0,-10.82 1.963,0 0,3.77 2.454,0 2.74,-3.77 2.311,0 -3.01,4.096 c 1.575,0.433 2.66,1.5 2.66,3.276" />
    <path
       id="path532"
       style="fill:#6f4323;fill-opacity:1;fill-rule:nonzero;stroke:none"
       d="m 759.677,696.863 3.538,0 0,-9.06 1.973,0 0,9.06 3.541,0 0,1.76 -9.052,0 0,-1.76" />
    <path
       id="path534"
       style="fill:#6f4323;fill-opacity:1;fill-rule:nonzero;stroke:none"
       d="m 770.906,687.803 1.96016,0 0,10.8199 -1.96016,0 0,-10.8199 z" />
    <path
       id="path536"
       style="fill:#6f4323;fill-opacity:1;fill-rule:nonzero;stroke:none"
       d="m 780.147,694.078 c -2.137,0.495 -2.647,0.851 -2.647,1.701 l 0,0.03 c 0,0.727 0.67,1.285 1.816,1.285 1.022,0 2.009,-0.388 3.032,-1.114 l 1.05,1.437 c -1.15,0.883 -2.408,1.359 -4.048,1.359 -2.215,0 -3.81,-1.282 -3.81,-3.136 l 0,-0.032 c 0,-2.01 1.338,-2.658 3.713,-3.228 2.072,-0.451 2.518,-0.899 2.518,-1.657 l 0,-0.03 c 0,-0.82 -0.766,-1.36 -1.974,-1.36 -1.404,0 -2.44,0.495 -3.526,1.407 l -1.177,-1.361 c 1.337,-1.173 2.931,-1.732 4.651,-1.732 2.343,0 3.988,1.191 3.988,3.232 l 0,0.03 c 0,1.778 -1.213,2.643 -3.586,3.169" />
    <path
       id="path538"
       style="fill:#6f4323;fill-opacity:1;fill-rule:nonzero;stroke:none"
       d="m 787.996,689.504 0,2.905 5.594,0 0,1.7 -5.594,0 0,2.813 6.313,0 0,1.701 -8.272,0 0,-10.82 8.35,0 0,1.701 -6.391,0" />
    <path
       id="path540"
       style="fill:#6f4323;fill-opacity:1;fill-rule:nonzero;stroke:none"
       d="m 723.447,782.143 -30.439,-17.964 0,5.046 30.439,17.965 0,17.912 -30.439,0 0,20.289 -8.337,0 0,-20.289 -31.547,0 0,-31.243 35.679,-21.845 34.644,20.444 0,9.685 z m -30.439,14.62 23.213,0 0,-4.153 -23.213,-13.701 0,17.854 z m -8.337,-32.445 -23.212,14.212 0,18.233 23.212,0 0,-32.445" />
    <path
       id="path542"
       style="fill:#393536;fill-opacity:1;fill-rule:nonzero;stroke:none"
       d="m 516.202,725.727 c 0,-5.04 -3.557,-8.495 -8.84,-8.495 l -4.983,0 0,17.157 4.983,0 c 5.283,0 8.84,-3.539 8.84,-8.581 l 0,-0.081 z m -8.84,14.313 -5.886,0 0.053,0.036 -8.266,0 2.668,-3.496 0,-25.001 11.431,0 c 9.217,0 15.582,6.219 15.582,14.229 l 0,0.083 c 0,8.011 -6.365,14.149 -15.582,14.149" />
    <path
       id="path544"
       style="fill:#393536;fill-opacity:1;fill-rule:nonzero;stroke:none"
       d="m 534.668,723.127 13.82,0 0,5.568 -13.82,0 0,5.776 15.707,0 0,5.569 -16.682,0 0.055,0.036 -8.267,0 2.703,-3.545 0.075,0.05 0,-25.002 22.324,0 0,5.571 -15.915,0 0,5.977" />
    <path
       id="path546"
       style="fill:#393536;fill-opacity:1;fill-rule:nonzero;stroke:none"
       d="m 562.306,723.127 13.824,0 0,5.568 -13.824,0 0,5.776 15.709,0 0,5.569 -16.657,0 0.055,0.036 -8.264,0 2.698,-3.545 0.049,0.036 0,-24.988 22.329,0 0,5.571 -15.919,0 0,5.977" />
    <path
       id="path548"
       style="fill:#393536;fill-opacity:1;fill-rule:nonzero;stroke:none"
       d="m 600.207,729.995 c 0,-2.439 -1.884,-4.307 -5.112,-4.307 l -5.107,0 0,8.701 4.985,0 c 3.224,0 5.234,-1.506 5.234,-4.311 l 0,-0.083 z m -4.691,10.045 -11.976,0 0,-28.461 6.448,0 0,8.538 4.902,0 c 6.575,0 11.851,3.417 11.851,10.005 l 0,0.078 c 0,5.815 -4.227,9.84 -11.225,9.84" />
    <path
       id="path550"
       style="fill:#393536;fill-opacity:1;fill-rule:nonzero;stroke:none"
       d="m 625.786,723.127 13.818,0 0,5.568 -13.818,0 0,5.776 15.707,0 0,5.569 -16.877,0 0.055,0.036 -8.267,0 2.698,-3.545 0.272,0.174 0,-25.126 22.327,0 0,5.571 -15.915,0 0,5.977" />
    <path
       id="path552"
       style="fill:#393536;fill-opacity:1;fill-rule:nonzero;stroke:none"
       d="m 672.438,740.04 -7.326,0 -6.202,-9.229 -6.155,9.229 -7.539,0 9.799,-13.987 -10.221,-14.474 7.332,0 6.616,9.762 6.575,-9.762 7.54,0 -10.216,14.558 9.797,13.903" />
    <path
       id="path554"
       style="fill:#393536;fill-opacity:1;fill-rule:nonzero;stroke:none"
       d="m 689.104,716.867 c -5.03,0 -8.505,4.064 -8.505,8.945 l 0,0.081 c 0,4.878 3.561,8.863 8.505,8.863 2.929,0 5.236,-1.221 7.493,-3.213 l 4.106,4.594 c -2.724,2.603 -6.028,4.391 -11.557,4.391 -9.006,0 -15.29,-6.629 -15.29,-14.716 l 0,-0.082 c 0,-8.176 6.408,-14.638 15.038,-14.638 5.654,0 9.002,1.95 12.023,5.082 l -4.108,4.023 c -2.304,-2.031 -4.357,-3.33 -7.705,-3.33" />
    <path
       id="path556"
       style="fill:#393536;fill-opacity:1;fill-rule:nonzero;stroke:none"
       d="m 714.014,723.492 3.897,9.229 3.894,-9.229 -7.791,0 z m 1.005,16.753 -12.566,-28.666 6.576,0 2.681,6.385 12.401,0 2.678,-6.385 6.74,0 -12.56,28.666 -5.95,0" />
    <path
       id="path558"
       style="fill:#393536;fill-opacity:1;fill-rule:nonzero;stroke:none"
       d="m 751.353,740.04 -7.665,-20.043 -7.665,20.043 -7.121,0 11.856,-28.663 5.696,0 11.849,28.663 -6.95,0" />
    <path
       id="path560"
       style="fill:#393536;fill-opacity:1;fill-rule:nonzero;stroke:none"
       d="m 765.237,723.492 3.898,9.229 3.894,-9.229 -7.792,0 z m 1.005,16.753 -12.567,-28.666 6.575,0 2.681,6.385 12.399,0 2.68,-6.385 6.748,0 -12.569,28.666 -5.947,0" />
    <path
       id="path562"
       style="fill:#393536;fill-opacity:1;fill-rule:nonzero;stroke:none"
       d="m 781.639,734.267 8.921,0 0,-22.687 6.451,0 0,22.687 8.92,0 0,5.773 -24.292,0 0,-5.773" />
    <path
       id="path564"
       style="fill:#393536;fill-opacity:1;fill-rule:nonzero;stroke:none"
       d="m 845.871,725.73 c 0,-4.881 -3.6,-8.863 -8.791,-8.863 -5.196,0 -8.882,4.064 -8.882,8.945 l 0,0.081 c 0,4.877 3.603,8.863 8.793,8.863 5.197,0 8.88,-4.066 8.88,-8.944 l 0,-0.082 z m -8.791,14.798 c -9.051,0 -15.623,-6.629 -15.623,-14.716 l 0,-0.082 c 0,-8.091 6.49,-14.638 15.534,-14.638 9.052,0 15.627,6.627 15.627,14.72 l 0,0.081 c 0,8.091 -6.493,14.635 -15.538,14.635" />
    <path
       id="path566"
       style="fill:#393536;fill-opacity:1;fill-rule:nonzero;stroke:none"
       d="m 876.94,740.04 0,-17.524 -13.738,17.524 -0.571,0 0.053,0.036 -8.264,0 2.696,-3.545 0.142,0.089 0,-25.041 6.363,0 0,18.093 14.198,-18.093 5.489,0 0,28.461 -6.368,0" />
    <path
       id="path568"
       style="fill:#393536;fill-opacity:1;fill-rule:nonzero;stroke:none"
       d="m 816.295,740.075 -8.266,0 2.7,-3.544 0.018,0.011 0,-24.963 6.45,0 0,28.461 -0.953,0 0.051,0.035" />
  </g>
</svg>
