<?xml version="1.0" encoding="UTF-8" standalone="no"?>
<svg
   xmlns:dc="http://purl.org/dc/elements/1.1/"
   xmlns:cc="http://creativecommons.org/ns#"
   xmlns:rdf="http://www.w3.org/1999/02/22-rdf-syntax-ns#"
   xmlns:svg="http://www.w3.org/2000/svg"
   xmlns="http://www.w3.org/2000/svg"
   version="1.1"
   id="svg3655"
   viewBox="0 0 487.55632 142.87375"
   width="137.59923mm"
   height="40.322147mm">
  <defs
     id="defs3661" />
  <metadata
     id="metadata3657">
    <rdf:RDF>
      <cc:Work
         rdf:about="">
        <dc:format>image/svg+xml</dc:format>
        <dc:type
           rdf:resource="http://purl.org/dc/dcmitype/StillImage" />
        <dc:title></dc:title>
      </cc:Work>
    </rdf:RDF>
  </metadata>
  <g
     transform="translate(0,-5e-5)"
     id="g3860">
    <path
       id="path540"
       style="fill:#6f4323;fill-opacity:1;fill-rule:nonzero;stroke:none"
       d="m 287.73,54.06005 -38.04875,22.455 0,-6.3075 38.04875,-22.45625 0,-22.39 -38.04875,0 0,-25.36125 -10.42125,0 0,25.36125 -39.43375,0 0,39.05375 44.59875,27.30625 43.305,-25.555 0,-12.10625 z m -38.04875,-18.275 29.01625,0 0,5.19125 -29.01625,17.12625 0,-22.3175 z M 239.26,76.3413 l -29.015,-17.765 0,-22.79125 29.015,0 0,40.55625" />
    <path
       id="path542"
       style="fill:#393536;fill-opacity:1;fill-rule:nonzero;stroke:none"
       d="m 28.67375,124.58005 c 0,6.3 -4.44625,10.61875 -11.05,10.61875 l -6.22875,0 0,-21.44625 6.22875,0 c 6.60375,0 11.05,4.42375 11.05,10.72625 l 0,0.10125 z m -11.05,-17.89125 -7.3575,0 0.06625,-0.045 -10.3325,0 3.335,4.37 0,31.25125 14.28875,0 c 11.52125,0 19.4775,-7.77375 19.4775,-17.78625 l 0,-0.10375 c 0,-10.01375 -7.95625,-17.68625 -19.4775,-17.68625" />
    <path
       id="path544"
       style="fill:#393536;fill-opacity:1;fill-rule:nonzero;stroke:none"
       d="m 51.75625,127.83005 17.275,0 0,-6.96 -17.275,0 0,-7.22 19.63375,0 0,-6.96125 -20.8525,0 0.06875,-0.045 -10.33375,0 3.37875,4.43125 0.09375,-0.0625 0,31.2525 27.905,0 0,-6.96375 -19.89375,0 0,-7.47125" />
    <path
       id="path546"
       style="fill:#393536;fill-opacity:1;fill-rule:nonzero;stroke:none"
       d="m 86.30375,127.83005 17.28,0 0,-6.96 -17.28,0 0,-7.22 19.63625,0 0,-6.96125 -20.82125,0 0.06875,-0.045 -10.33,0 3.3725,4.43125 0.06125,-0.045 0,31.235 27.91125,0 0,-6.96375 -19.89875,0 0,-7.47125" />
    <path
       id="path548"
       style="fill:#393536;fill-opacity:1;fill-rule:nonzero;stroke:none"
       d="m 133.68,119.24505 c 0,3.04875 -2.355,5.38375 -6.39,5.38375 l -6.38375,0 0,-10.87625 6.23125,0 c 4.03,0 6.5425,1.8825 6.5425,5.38875 l 0,0.10375 z m -5.86375,-12.55625 -14.97,0 0,35.57625 8.06,0 0,-10.6725 6.1275,0 c 8.21875,0 14.81375,-4.27125 14.81375,-12.50625 l 0,-0.0975 c 0,-7.26875 -5.28375,-12.3 -14.03125,-12.3" />
    <path
       id="path550"
       style="fill:#393536;fill-opacity:1;fill-rule:nonzero;stroke:none"
       d="m 165.65375,127.83005 17.2725,0 0,-6.96 -17.2725,0 0,-7.22 19.63375,0 0,-6.96125 -21.09625,0 0.0687,-0.045 -10.33375,0 3.3725,4.43125 0.34,-0.2175 0,31.4075 27.90875,0 0,-6.96375 -19.89375,0 0,-7.47125" />
    <path
       id="path552"
       style="fill:#393536;fill-opacity:1;fill-rule:nonzero;stroke:none"
       d="m 223.96875,106.6888 -9.1575,0 -7.7525,11.53625 -7.69375,-11.53625 -9.42375,0 12.24875,17.48375 -12.77625,18.0925 9.165,0 8.27,-12.2025 8.21875,12.2025 9.425,0 -12.77,-18.1975 12.24625,-17.37875" />
    <path
       id="path554"
       style="fill:#393536;fill-opacity:1;fill-rule:nonzero;stroke:none"
       d="m 244.80125,135.65505 c -6.2875,0 -10.63125,-5.08 -10.63125,-11.18125 l 0,-0.10125 c 0,-6.0975 4.45125,-11.07875 10.63125,-11.07875 3.66125,0 6.545,1.52625 9.36625,4.01625 l 5.1325,-5.7425 c -3.405,-3.25375 -7.535,-5.48875 -14.44625,-5.48875 -11.2575,0 -19.1125,8.28625 -19.1125,18.395 l 0,0.1025 c 0,10.22 8.01,18.2975 18.7975,18.2975 7.0675,0 11.2525,-2.4375 15.02875,-6.3525 l -5.135,-5.02875 c -2.88,2.53875 -5.44625,4.1625 -9.63125,4.1625" />
    <path
       id="path556"
       style="fill:#393536;fill-opacity:1;fill-rule:nonzero;stroke:none"
       d="m 275.93875,127.3738 4.87125,-11.53625 4.8675,11.53625 -9.73875,0 z m 1.25625,-20.94125 -15.7075,35.8325 8.22,0 3.35125,-7.98125 15.50125,0 3.3475,7.98125 8.425,0 -15.7,-35.8325 -7.4375,0" />
    <path
       id="path558"
       style="fill:#393536;fill-opacity:1;fill-rule:nonzero;stroke:none"
       d="m 322.6125,106.6888 -9.58125,25.05375 -9.58125,-25.05375 -8.90125,0 14.82,35.82875 7.12,0 14.81125,-35.82875 -8.6875,0" />
    <path
       id="path560"
       style="fill:#393536;fill-opacity:1;fill-rule:nonzero;stroke:none"
       d="m 339.9675,127.3738 4.8725,-11.53625 4.8675,11.53625 -9.74,0 z m 1.25625,-20.94125 -15.70875,35.8325 8.21875,0 3.35125,-7.98125 15.49875,0 3.35,7.98125 8.435,0 -15.71125,-35.8325 -7.43375,0" />
    <path
       id="path562"
       style="fill:#393536;fill-opacity:1;fill-rule:nonzero;stroke:none"
       d="m 360.47,113.90505 11.15125,0 0,28.35875 8.06375,0 0,-28.35875 11.15,0 0,-7.21625 -30.365,0 0,7.21625" />
    <path
       id="path564"
       style="fill:#393536;fill-opacity:1;fill-rule:nonzero;stroke:none"
       d="m 440.76,124.5763 c 0,6.10125 -4.5,11.07875 -10.98875,11.07875 -6.495,0 -11.1025,-5.08 -11.1025,-11.18125 l 0,-0.10125 c 0,-6.09625 4.50375,-11.07875 10.99125,-11.07875 6.49625,0 11.1,5.0825 11.1,11.18 l 0,0.1025 z m -10.98875,-18.4975 c -11.31375,0 -19.52875,8.28625 -19.52875,18.395 l 0,0.1025 c 0,10.11375 8.1125,18.2975 19.4175,18.2975 11.315,0 19.53375,-8.28375 19.53375,-18.4 l 0,-0.10125 c 0,-10.11375 -8.11625,-18.29375 -19.4225,-18.29375" />
    <path
       id="path566"
       style="fill:#393536;fill-opacity:1;fill-rule:nonzero;stroke:none"
       d="m 479.59625,106.6888 0,21.905 -17.1725,-21.905 -0.71375,0 0.0663,-0.045 -10.33,0 3.37,4.43125 0.1775,-0.11125 0,31.30125 7.95375,0 0,-22.61625 17.7475,22.61625 6.86125,0 0,-35.57625 -7.96,0" />
    <path
       id="path568"
       style="fill:#393536;fill-opacity:1;fill-rule:nonzero;stroke:none"
       d="m 403.79,106.64505 -10.3325,0 3.375,4.43 0.0225,-0.0138 0,31.20375 8.0625,0 0,-35.57625 -1.19125,0 0.0638,-0.0438" />
  </g>
</svg>
