<svg xmlns="http://www.w3.org/2000/svg" xmlns:xlink="http://www.w3.org/1999/xlink" x="0px" y="0px"
	 viewBox="0 0 32 32" enable-background="new 0 0 32 32" xml:space="preserve">
	<path fill="#010101" d="M28.7,22H9.1l-5-18H0.9V2h4.8l5,18h16.4l1.6-9H12.9V9h18.2L28.7,22z"/>
	<path fill="#010101" d="M11.9,30c-1.7,0-3-1.3-3-3c0-1.7,1.3-3,3-3c1.7,0,3,1.3,3,3C14.9,28.7,13.6,30,11.9,30z M11.9,26
		c-0.6,0-1,0.4-1,1c0,0.6,0.4,1,1,1c0.6,0,1-0.4,1-1C12.9,26.4,12.5,26,11.9,26z"/>
	<path fill="#010101" d="M24.9,30c-1.7,0-3-1.3-3-3c0-1.7,1.3-3,3-3c1.7,0,3,1.3,3,3C27.9,28.7,26.6,30,24.9,30z M24.9,26
		c-0.6,0-1,0.4-1,1c0,0.6,0.4,1,1,1c0.6,0,1-0.4,1-1C25.9,26.4,25.5,26,24.9,26z"/>
	<path fill="#010101" d="M14.9,13h2v5h-2V13z"/>
	<path fill="#010101" d="M20.9,13h2v5h-2V13z"/>
</svg>