<svg xmlns="http://www.w3.org/2000/svg" xmlns:xlink="http://www.w3.org/1999/xlink" x="0px" y="0px"
	 viewBox="0 0 32 32" enable-background="new 0 0 32 32" xml:space="preserve">
	<path fill="#808184" d="M30.5,7.3L18.9,0.7c-1.6-0.9-4.3-0.9-5.8,0L1.5,7.3c-0.9,0.5-1.4,1.2-1.4,2c0,0.8,0.5,1.5,1.4,2l11.5,6.5
		c0.8,0.4,1.8,0.7,2.9,0.7c1.1,0,2.1-0.2,2.9-0.7l11.5-6.5c0.9-0.5,1.4-1.2,1.4-2C31.8,8.5,31.3,7.8,30.5,7.3z M29.9,10.3l-11.5,6.5
		c-1.2,0.7-3.6,0.7-4.8,0L2.1,10.3c-0.5-0.3-0.8-0.7-0.8-1c0-0.4,0.3-0.7,0.8-1l11.5-6.5c0.6-0.4,1.5-0.5,2.4-0.5
		c0.9,0,1.8,0.2,2.4,0.5l11.5,6.5c0.5,0.3,0.8,0.7,0.8,1C30.8,9.6,30.5,10,29.9,10.3z"/>
	<path fill="#808184" d="M30.5,14.1c-0.3-0.1-0.6-0.1-0.7,0.2c-0.1,0.3-0.1,0.6,0.2,0.7c0.5,0.3,0.8,0.7,0.8,1c0,0.4-0.3,0.7-0.8,1
		l-11.5,6.5c-1.3,0.7-3.5,0.7-4.8,0L2.1,17.1c-0.5-0.3-0.8-0.7-0.8-1c0-0.4,0.3-0.7,0.8-1c0.3-0.1,0.3-0.5,0.2-0.7
		C2.1,14,1.8,14,1.5,14.1c-0.9,0.5-1.4,1.2-1.4,2c0,0.8,0.5,1.5,1.4,2l11.5,6.5c0.8,0.5,1.9,0.7,2.9,0.7c1.1,0,2.1-0.2,2.9-0.7
		L30.5,18c0.9-0.5,1.4-1.2,1.4-2C31.8,15.3,31.3,14.6,30.5,14.1z"/>
	<path fill="#808184" d="M30.5,20.8c-0.3-0.1-0.6-0.1-0.7,0.2c-0.1,0.3-0.1,0.6,0.2,0.7c0.5,0.3,0.8,0.7,0.8,1c0,0.4-0.3,0.7-0.8,1
		l-11.5,6.5c-1.3,0.7-3.5,0.7-4.8,0L2.1,23.8c-0.5-0.3-0.8-0.7-0.8-1c0-0.4,0.3-0.7,0.8-1c0.3-0.1,0.3-0.5,0.2-0.7
		c-0.1-0.3-0.5-0.3-0.7-0.2c-0.9,0.5-1.4,1.2-1.4,2c0,0.8,0.5,1.5,1.4,2l11.5,6.5c0.8,0.5,1.9,0.7,2.9,0.7c1.1,0,2.1-0.2,2.9-0.7
		l11.5-6.5c0.9-0.5,1.4-1.2,1.4-2C31.8,22,31.3,21.3,30.5,20.8z"/>
</svg>