<svg xmlns="http://www.w3.org/2000/svg" xmlns:xlink="http://www.w3.org/1999/xlink" x="0px" y="0px"
	 viewBox="0 0 32 32" enable-background="new 0 0 32 32" xml:space="preserve">
	<path fill="#808184" d="M19.2,16.5c0.2,0,0.3,0,0.5,0c1.2,0,2.4-0.5,3.2-1.3l7.3-7.3c0.9-0.9,1.3-2,1.3-3.2c0-1.2-0.5-2.3-1.3-3.2
		c-0.8-0.8-2-1.3-3.2-1.3c0,0,0,0,0,0c-1.2,0-2.3,0.5-3.2,1.3l-7.3,7.3c-1.1,1.1-1.6,2.6-1.3,4.1c0.1,0.3,0.3,0.5,0.6,0.4
		c0.3-0.1,0.5-0.3,0.4-0.6c-0.2-1.1,0.1-2.3,1-3.2l7.3-7.3c0.7-0.7,1.5-1,2.5-1c1,0,1.8,0.3,2.4,1c0.6,0.6,1,1.5,1,2.4
		c0,0.9-0.4,1.8-1,2.5l-7.3,7.3c-0.8,0.8-1.8,1.1-2.9,1c-0.3,0-0.6,0.2-0.6,0.5C18.7,16.2,18.9,16.4,19.2,16.5z"/>
	<path fill="#808184" d="M15.4,23.2c1.1-1.1,1.6-2.7,1.2-4.3c-0.1-0.3-0.3-0.5-0.6-0.4c-0.3,0.1-0.5,0.4-0.4,0.6
		c0.3,1.2-0.1,2.4-0.9,3.3l-7.3,7.3c-0.7,0.7-1.5,1-2.5,1c-1,0-1.8-0.3-2.4-1c-0.6-0.6-1-1.5-1-2.4c0-0.9,0.4-1.8,1-2.5l7.3-7.3
		c0.8-0.8,1.8-1.1,2.9-1c0.3,0,0.6-0.2,0.6-0.5c0-0.3-0.2-0.6-0.5-0.6c-1.4-0.2-2.8,0.3-3.8,1.3l-7.3,7.3c-0.9,0.9-1.3,2-1.3,3.2
		c0,1.2,0.5,2.3,1.3,3.2c0.8,0.8,2,1.3,3.2,1.3c0,0,0,0,0,0c1.2,0,2.3-0.5,3.2-1.3L15.4,23.2z"/>
	<path fill="#808184" d="M23,8.9c-0.2-0.2-0.5-0.2-0.7,0L8.8,22.3c-0.2,0.2-0.2,0.5,0,0.7c0.1,0.1,0.2,0.2,0.4,0.2
		c0.1,0,0.3-0.1,0.4-0.2L23,9.7C23.2,9.5,23.2,9.1,23,8.9z"/>
</svg>