<svg xmlns="http://www.w3.org/2000/svg" xmlns:xlink="http://www.w3.org/1999/xlink" x="0px" y="0px"
	 viewBox="0 0 32 32" enable-background="new 0 0 32 32" xml:space="preserve">
	<path fill="#808184" d="M16,0C10.7,0,5,4.2,5,11c0,3.4,1.3,6.2,3.9,8.3c0,0,0.1,0.1,0.1,0.1c1.9,2.1,2,2.5,2,3.4c0,0.4,0,0.5,0,0.5
		l0,0.2c0,0.5,0,1.2,0.9,1.5l8.1,1.8c0,0,0.1,0,0.1,0c0.2,0,0.4-0.2,0.5-0.4c0.1-0.3-0.1-0.5-0.4-0.6L12.1,24C12,24,12,24,12,23.5
		l0-0.2c0,0,0-0.1,0-0.6c0-1.3-0.3-1.9-2.3-4.1c0,0-0.1-0.1-0.1-0.1C7.2,16.6,6,14,6,11C6,4.8,11.2,1,16,1c4.9,0,10,3.7,10,10
		c0,4-1.9,6.2-3.5,7.6c-0.1,0-0.1,0.1-0.1,0.1c-2,2.2-2.3,2.8-2.3,4.1c0,0,0,0.1,0,0.1l0,0c0,0.1,0,0.1,0,0.1c0,0-0.1,0-0.1,0l-4.2-1
		c-0.3-0.1-0.5,0.1-0.6,0.4c-0.1,0.3,0.1,0.5,0.4,0.6l4.1,1c0.1,0,0.6,0.2,1-0.1c0.2-0.1,0.4-0.4,0.4-0.9l0,0c0,0,0-0.1,0-0.1
		c0,0,0,0,0,0l0,0c0-0.9,0.1-1.3,2-3.4c0,0,0,0,0,0c2.7-2.2,4-5,4-8.4C27,4.1,21.4,0,16,0z"/>
	<path fill="#808184" d="M20,29.5c0.2,0,0.4-0.2,0.5-0.4c0.1-0.3-0.1-0.5-0.4-0.6l-8-1.8c-0.3-0.1-0.5,0.1-0.6,0.4
		c-0.1,0.3,0.1,0.5,0.4,0.6l8,1.8C19.9,29.5,20,29.5,20,29.5z"/>
	<path fill="#808184" d="M12.6,29.6c-0.3-0.1-0.5,0.1-0.6,0.4c-0.1,0.3,0.1,0.5,0.4,0.6l6.5,1.5c0,0,0.1,0,0.1,0
		c0.2,0,0.4-0.2,0.5-0.4c0.1-0.3-0.1-0.5-0.4-0.6L12.6,29.6z"/>
</svg>