<svg xmlns="http://www.w3.org/2000/svg" xmlns:xlink="http://www.w3.org/1999/xlink" x="0px" y="0px"
	 viewBox="0 0 42 32" enable-background="new 0 0 42 32" xml:space="preserve">
	<path fill="#808184" d="M35.7,14c-0.3-0.1-0.5,0.1-0.6,0.3c-0.1,0.3,0.1,0.5,0.3,0.6c3.9,1.2,5.7,3.1,5.7,6c0,2.6-2.4,4.6-3.8,5.6
		C37.1,26.7,37,26.8,37,27v3.8c-0.7-0.3-2-0.9-3.1-2.2c-0.1-0.1-0.3-0.2-0.5-0.2c-0.3,0.1-0.6,0.1-0.9,0.2C32,28.9,31.5,29,31,29
		c-2.6,0-4.4-0.6-6.2-1.9c-0.2-0.2-0.5-0.1-0.7,0.1c-0.2,0.2-0.1,0.5,0.1,0.7c2,1.5,4,2.1,6.8,2.1c0.6,0,1.2-0.2,1.8-0.3
		c0.2,0,0.4-0.1,0.5-0.1c1.9,2,4,2.4,4.1,2.4c0,0,0.1,0,0.1,0c0.1,0,0.2,0,0.3-0.1c0.1-0.1,0.2-0.2,0.2-0.4v-4.2c2.6-1.8,4-4.1,4-6.3
		C42,17.6,40,15.4,35.7,14z"/>
	<path fill="#808184" d="M33,13.5C33,5.8,26,0,16.7,0C7.3,0,0,5.9,0,13.5c0,4.5,3.2,7.8,6,9.8v6.6c0,0.2,0.1,0.3,0.2,0.4
		c0.1,0.1,0.2,0.1,0.3,0.1c0.1,0,0.1,0,0.2,0c0.1-0.1,3.6-1.6,6.5-4.8c1.3,0.2,2.7,0.5,4,0.5C26.6,26,33,21,33,13.5z M17.2,25
		c-1.3,0-2.8-0.3-4.1-0.5c-0.2,0-0.4,0-0.5,0.2c-2,2.3-4.5,3.8-5.6,4.4V23c0-0.2-0.1-0.3-0.2-0.4C4.1,20.8,1,17.7,1,13.5
		C1,6.5,7.9,1,16.7,1C25.4,1,32,6.4,32,13.5C32,20.4,26,25,17.2,25z"/>
	<path fill="#808184" d="M16.5,11.5c-1.1,0-2,0.9-2,2s0.9,2,2,2s2-0.9,2-2S17.6,11.5,16.5,11.5z M16.5,14.5c-0.6,0-1-0.4-1-1
		c0-0.6,0.4-1,1-1c0.6,0,1,0.4,1,1C17.5,14.1,17.1,14.5,16.5,14.5z"/>
	<path fill="#808184" d="M23.5,11.5c-1.1,0-2,0.9-2,2s0.9,2,2,2s2-0.9,2-2S24.6,11.5,23.5,11.5z M23.5,14.5c-0.6,0-1-0.4-1-1
		c0-0.6,0.4-1,1-1c0.6,0,1,0.4,1,1C24.5,14.1,24.1,14.5,23.5,14.5z"/>
	<path fill="#808184" d="M9.5,11.6c-1.1,0-2,0.9-2,2c0,1.1,0.9,2,2,2s2-0.9,2-2C11.5,12.5,10.6,11.6,9.5,11.6z M9.5,14.6
		c-0.6,0-1-0.4-1-1c0-0.6,0.4-1,1-1c0.6,0,1,0.4,1,1C10.5,14.1,10.1,14.6,9.5,14.6z"/>
</svg>