<svg xmlns="http://www.w3.org/2000/svg" xmlns:xlink="http://www.w3.org/1999/xlink" x="0px" y="0px"
	 viewBox="0 0 42 32" enable-background="new 0 0 42 32" xml:space="preserve">
	<path fill="#808184" d="M3.7,21.7c0.2,0,0.4,0.3,0.5,0.5L4.5,23c0.1,0.2,0.1,0.5,0,0.6l-1.4,2.3c-0.3,0.5-0.2,1.2,0.2,1.6l1.2,1.2
		c0.4,0.4,1.1,0.4,1.6,0.1l2.3-1.4c0.1-0.1,0.4-0.1,0.7,0l0.8,0.3c0.2,0.1,0.4,0.3,0.4,0.5l0.6,2.6c0.1,0.6,0.7,1,1.2,1.1
		c0,0,0.3,0,0.9,0c0.5,0,0.9,0,0.9,0c0.6-0.1,1.1-0.5,1.2-1.1l0.6-2.6c0-0.2,0.3-0.4,0.5-0.5l0.8-0.3c0.1-0.1,0.5-0.1,0.6,0l2.3,1.4
		c0.2,0.1,0.4,0.2,0.7,0.2c0.3,0,0.7-0.1,0.9-0.4l1.2-1.2c0.4-0.4,0.4-1.1,0.1-1.6l-1.4-2.3c-0.1-0.2-0.1-0.5,0-0.7l0.3-0.8
		c0.1-0.2,0.3-0.4,0.5-0.4l2.6-0.6c0.6-0.1,1-0.7,1.1-1.2c0,0,0-0.3,0-0.9c0-0.5,0-0.9,0-0.9c-0.1-0.6-0.5-1.1-1.1-1.2l-2.6-0.6
		c-0.2,0-0.4-0.3-0.5-0.5L21.5,15c-0.1-0.2-0.1-0.5,0-0.6l1.4-2.3c0.3-0.5,0.2-1.2-0.2-1.6l-1.2-1.2c-0.4-0.4-1.1-0.4-1.6-0.1
		l-2.3,1.4c-0.1,0.1-0.5,0.1-0.7,0l-0.8-0.3c-0.2-0.1-0.4-0.3-0.4-0.5l-0.6-2.6c-0.1-0.6-0.7-1-1.2-1.1c0,0-0.3,0-0.9,0
		c-0.5,0-0.9,0-0.9,0c-0.6,0.1-1.1,0.5-1.2,1.1l-0.6,2.6c0,0.2-0.3,0.4-0.5,0.5L9,10.5c-0.1,0.1-0.5,0.1-0.6,0L6.1,9.1
		C5.6,8.8,4.9,8.9,4.4,9.3l-1.2,1.2c-0.4,0.4-0.4,1.1-0.1,1.6l1.4,2.3c0.1,0.2,0.1,0.5,0,0.7l-0.3,0.8c-0.1,0.2-0.3,0.4-0.5,0.4
		l-2.6,0.6c-0.6,0.1-1,0.7-1.1,1.2c0,0,0,0.3,0,0.9s0,0.9,0,0.9c0.1,0.6,0.5,1.1,1.1,1.2L3.7,21.7z M1,19c0-0.5,0-0.8,0-0.8
		c0-0.1,0.2-0.3,0.3-0.3l2.6-0.6c0.5-0.1,1-0.6,1.2-1l0.3-0.8c0.2-0.5,0.2-1.2-0.1-1.6l-1.4-2.3c-0.1-0.1,0-0.3,0-0.4L5.1,10
		c0.1-0.1,0.3-0.1,0.4,0l2.3,1.4c0.4,0.3,1.2,0.3,1.6,0.1l0.8-0.3c0.5-0.2,1-0.7,1.1-1.2l0.6-2.6c0-0.1,0.2-0.3,0.3-0.3
		c0,0,0.3,0,0.8,0s0.8,0,0.8,0c0.1,0,0.3,0.2,0.3,0.3l0.6,2.6c0.1,0.5,0.6,1,1,1.2l0.8,0.3c0.5,0.2,1.2,0.2,1.6-0.1l2.3-1.4
		c0.1-0.1,0.4,0,0.4,0l1.1,1.1c0.1,0.1,0.1,0.3,0,0.4l-1.4,2.3c-0.3,0.4-0.3,1.1-0.1,1.6l0.3,0.8c0.2,0.5,0.7,1,1.2,1.1l2.6,0.6
		c0.1,0,0.3,0.2,0.3,0.3c0,0,0,0.3,0,0.8s0,0.8,0,0.8c0,0.1-0.2,0.3-0.3,0.3L22,20.7c-0.5,0.1-1,0.6-1.2,1l-0.3,0.8
		c-0.2,0.5-0.2,1.2,0.1,1.6l1.4,2.3c0.1,0.1,0,0.3,0,0.4L20.9,28c-0.1,0-0.2,0.1-0.2,0.1c-0.1,0-0.1,0-0.2,0l-2.3-1.4
		c-0.4-0.3-1.2-0.3-1.6-0.1l-0.8,0.3c-0.5,0.2-1,0.7-1.1,1.2l-0.6,2.6c0,0.1-0.2,0.3-0.3,0.3c0,0-0.3,0-0.8,0s-0.8,0-0.8,0
		c-0.1,0-0.3-0.2-0.3-0.3L11.2,28c-0.1-0.5-0.6-1-1-1.2l-0.8-0.3c-0.2-0.1-0.5-0.2-0.7-0.2c-0.3,0-0.6,0.1-0.9,0.2L5.5,28
		c-0.1,0.1-0.4,0-0.4,0L4,26.9c-0.1-0.1-0.1-0.3,0-0.4l1.4-2.3c0.3-0.4,0.3-1.1,0.1-1.6l-0.3-0.8c-0.2-0.5-0.7-1-1.2-1.1l-2.6-0.6
		c-0.1,0-0.3-0.2-0.3-0.3C1,19.8,1,19.4,1,19z"/>
	<path fill="#808184" d="M13,24.5c3,0,5.5-2.5,5.5-5.5c0-3-2.5-5.5-5.5-5.5c-3,0-5.5,2.5-5.5,5.5C7.5,22,10,24.5,13,24.5z M13,14.5
		c2.5,0,4.5,2,4.5,4.5c0,2.5-2,4.5-4.5,4.5s-4.5-2-4.5-4.5C8.5,16.5,10.5,14.5,13,14.5z"/>
	<path fill="#808184" d="M27.4,5.3c0,0.1-0.2,0.1-0.3,0.1l-1.9,0c-0.5,0-0.9,0.3-1.1,0.7c0,0-0.1,0.2-0.2,0.6C24,7.1,24,7.4,24,7.4
		c-0.1,0.5,0.2,0.9,0.6,1.2l1.6,0.9c0.1,0,0.2,0.2,0.2,0.3l0.1,0.6c0,0.1,0,0.2-0.1,0.3L25,11.9c-0.3,0.3-0.4,0.9-0.2,1.3l0.6,1
		c0.3,0.4,0.8,0.6,1.2,0.4l1.8-0.6c0.1,0,0.2,0,0.3,0.1l0.5,0.4c0.1,0,0.1,0.2,0.1,0.3l0,1.8c0,0.5,0.3,0.9,0.7,1.1
		c0,0,0.2,0.1,0.6,0.2c0.4,0.1,0.6,0.1,0.6,0.1c0,0,0.1,0,0.2,0c0.4,0,0.8-0.2,1-0.6l0.9-1.6c0-0.1,0.2-0.2,0.3-0.2l0.7-0.1
		c0.1,0,0.2,0.1,0.3,0.1l1.3,1.3c0.3,0.3,0.8,0.4,1.3,0.2l1-0.6c0.4-0.3,0.6-0.8,0.4-1.2L38,13.5c0-0.1,0-0.2,0.1-0.3l0.4-0.5
		c0-0.1,0.2-0.1,0.3-0.1l1.9,0c0.5,0,0.9-0.3,1.1-0.7c0,0,0.1-0.2,0.2-0.6c0.1-0.4,0.1-0.6,0.1-0.6c0.1-0.5-0.2-0.9-0.6-1.2l-1.6-0.9
		c-0.1,0-0.2-0.2-0.2-0.3l-0.1-0.6c0-0.1,0-0.2,0.1-0.3l1.3-1.3c0.3-0.3,0.4-0.9,0.2-1.3l-0.6-1c-0.3-0.4-0.8-0.6-1.2-0.4l-1.8,0.6
		c-0.1,0-0.2,0-0.3-0.1l-0.5-0.4c-0.1,0-0.1-0.2-0.1-0.3l0-1.8c0-0.5-0.3-0.9-0.7-1.1c0,0-0.2-0.1-0.6-0.2C34.8,0.1,34.6,0,34.6,0
		c0,0-0.1,0-0.2,0c-0.4,0-0.8,0.2-1,0.6l-0.9,1.6c0,0.1-0.2,0.2-0.3,0.2l-0.7,0.1c-0.1,0-0.2-0.1-0.3-0.1l-1.3-1.3
		c-0.3-0.3-0.8-0.4-1.3-0.2l-1,0.6c-0.4,0.3-0.6,0.8-0.4,1.2l0.6,1.8c0,0.1,0,0.2-0.1,0.3L27.4,5.3z M28.3,5.9l0.3-0.5
		c0.3-0.3,0.4-0.8,0.2-1.2l-0.6-1.8c0,0,0-0.1,0-0.1l0.9-0.6l0.1,0l1.3,1.3c0.2,0.2,0.6,0.4,1,0.4c0.1,0,0.2,0,0.2,0l0.6-0.1
		c0.4,0,0.8-0.3,1-0.7l0.9-1.6c0,0,0.1-0.1,0.1-0.1c0,0,0.2,0,0.5,0.1c0.3,0.1,0.5,0.1,0.5,0.1c0,0,0.1,0.1,0.1,0.1l0,1.8
		c0,0.4,0.2,0.9,0.6,1.1l0.5,0.3c0.3,0.3,0.8,0.4,1.2,0.2l1.8-0.6c0,0,0.1,0,0.1,0l0.6,0.9c0,0,0,0.1,0,0.1l-1.3,1.3
		c-0.3,0.3-0.4,0.8-0.4,1.2l0.1,0.6c0,0.4,0.3,0.8,0.7,1l1.6,0.9c0,0,0.1,0.1,0.1,0.1c0,0,0,0.2-0.1,0.5c-0.1,0.3-0.1,0.5-0.1,0.5
		c0,0-0.1,0.1-0.1,0.1l-1.9,0c-0.4,0-0.9,0.2-1.1,0.6l-0.3,0.5c-0.3,0.3-0.4,0.8-0.2,1.2l0.5,1.8c0,0,0,0.1,0,0.1l-0.9,0.6l-0.1,0
		l-1.3-1.3c-0.2-0.2-0.6-0.4-1-0.4c-0.1,0-0.2,0-0.2,0l-0.6,0.1c-0.4,0-0.8,0.3-1,0.7l-0.9,1.6c0,0-0.1,0.1-0.1,0.1l0,0
		c0,0-0.2,0-0.5-0.1c-0.3-0.1-0.5-0.1-0.5-0.1c0,0-0.1-0.1-0.1-0.1l0-1.8c0-0.4-0.2-0.9-0.6-1.1l-0.5-0.3c-0.2-0.2-0.5-0.3-0.9-0.3
		c-0.1,0-0.2,0-0.4,0.1l-1.8,0.6c0,0-0.1,0-0.1,0l-0.6-0.9c0,0,0-0.1,0-0.1l1.3-1.3c0.3-0.3,0.4-0.8,0.4-1.2l-0.1-0.6
		c0-0.4-0.3-0.8-0.7-1L25,7.7c0,0-0.1-0.1-0.1-0.1c0,0,0-0.2,0.1-0.5c0.1-0.3,0.1-0.5,0.1-0.5c0,0,0.1-0.1,0.1-0.1l1.9,0
		C27.6,6.5,28.1,6.2,28.3,5.9z"/>
	<path fill="#808184" d="M33,12c1.7,0,3-1.3,3-3c0-1.7-1.3-3-3-3c-1.7,0-3,1.3-3,3C30,10.7,31.3,12,33,12z M33,7c1.1,0,2,0.9,2,2
		s-0.9,2-2,2c-1.1,0-2-0.9-2-2S31.9,7,33,7z"/>
</svg>