<?xml version="1.0" encoding="utf-8"?>
<!-- Generator: Adobe Illustrator 18.0.0, SVG Export Plug-In . SVG Version: 6.00 Build 0)  -->
<!DOCTYPE svg PUBLIC "-//W3C//DTD SVG 1.1//EN" "http://www.w3.org/Graphics/SVG/1.1/DTD/svg11.dtd">
<svg version="1.1" id="Layer_1" xmlns="http://www.w3.org/2000/svg" xmlns:xlink="http://www.w3.org/1999/xlink" x="0px" y="0px"
	 viewBox="0 0 204 138" enable-background="new 0 0 204 138" xml:space="preserve">
<g>
	<g>
		<g>
			<path fill="#010101" d="M116.9,137.6H68.3c-2.9,0-5.2-2.3-5.2-5.2v-22.7c0-12.6,8.4-23.5,20.6-27.2v-3.5c-3.2-2-5.8-5.1-7.6-8.8
				c-3.9-0.6-6.9-4.7-6.9-9.8c0-4.6,2.4-8.4,5.8-9.5c2.8-8.6,9.8-14.3,17.6-14.3c7.9,0,14.8,5.7,17.6,14.3c3.4,1.1,5.8,4.9,5.8,9.5
				c0,5.1-3,9.2-6.9,9.8c-1.8,3.8-4.4,6.8-7.6,8.8v3.5c12.2,3.7,20.6,14.7,20.6,27.2c0,0,0,0.1,0,0.1l0,22.6
				C122.2,135.2,119.8,137.6,116.9,137.6z M77.7,65c1,0,2,0.6,2.3,1.6c1.5,3.9,4.1,6.9,7.2,8.6c0.8,0.4,1.3,1.3,1.3,2.2v6.9
				c0,1.2-0.8,2.2-1.9,2.4c-11,2.6-18.7,12-18.7,22.8v22.7c0,0.1,0.1,0.2,0.2,0.2h48.7c0.1,0,0.2-0.1,0.2-0.2v-22.7c0,0,0-0.1,0-0.1
				c0-10.8-7.7-20.2-18.7-22.8c-1.1-0.3-1.9-1.3-1.9-2.4v-6.9c0-0.9,0.5-1.8,1.3-2.2c3.2-1.7,5.7-4.7,7.2-8.6
				c0.4-1.1,1.6-1.8,2.8-1.6c0.1,0,0.2,0,0.3,0c1.3,0,2.8-2.1,2.8-4.9c0-2.8-1.5-4.8-2.8-4.9c-1.1,0-2.1-0.8-2.4-1.9
				c-1.9-7.2-7.2-12.1-13.2-12.1c-6,0-11.4,4.9-13.2,12.1c-0.3,1.1-1.3,1.8-2.4,1.9c-1.3,0-2.8,2-2.8,4.9c0,2.8,1.5,4.9,2.8,4.9
				c0.1,0,0.2,0,0.3,0C77.4,65,77.6,65,77.7,65z"/>
		</g>
		<g>
			<path fill="#010101" d="M145.8,125.7H129c-1.4,0-2.5-1.1-2.5-2.5c0-1.4,1.1-2.5,2.5-2.5h16.8c0,0,0.1,0,0.1-0.1V99.1
				c0-10.3-7.3-19.2-17.6-21.6c-1.1-0.3-1.9-1.3-1.9-2.4v-6.6c0-0.9,0.5-1.8,1.3-2.2c3-1.6,5.4-4.4,6.8-8.1c0.4-1.1,1.6-1.8,2.8-1.6
				c1.3,0.2,2.8-1.7,2.8-4.5c0-2.6-1.3-4.5-2.5-4.5c-1.1,0-2.1-0.8-2.4-1.9c-1.8-6.8-6.8-11.4-12.5-11.4c-4.1,0-7.9,2.4-10.5,6.6
				c-0.7,1.2-2.2,1.6-3.4,0.9c-1.2-0.7-1.6-2.2-0.9-3.4c3.4-5.7,8.9-9,14.8-9c7.5,0,14.1,5.4,16.9,13.6c3.2,1.1,5.5,4.8,5.5,9.2
				c0,4.9-2.8,8.9-6.6,9.4c-1.7,3.5-4.2,6.4-7.1,8.4v3.2c11.6,3.6,19.6,14,19.6,25.9v21.6C150.9,123.4,148.6,125.7,145.8,125.7z"/>
		</g>
	</g>
	<g>
		<path fill="#58A0D7" d="M157.7,60.3c-0.8,0-1.7-0.4-2.1-1.2c-0.6-1-0.5-2.2,0.3-3c2.1-2.2,3.2-5.1,4.4-8.3
			c0.2-0.5,0.4-0.9,0.5-1.4c-10.8-3.4-17.3-11.7-17.3-22.1c0-13.4,13.4-24.3,29.8-24.3c16.4,0,29.8,10.9,29.8,24.3
			c0,13.4-8,21.8-22.6,23.8c-6.1,6.3-17.4,10.5-20.9,11.7c-0.3,0.1-0.6,0.2-0.9,0.3l-0.3,0.1C158.2,60.3,157.9,60.3,157.7,60.3z
			 M173.3,5c-13.7,0-24.8,8.7-24.8,19.3c0,9,6.1,15.7,16.3,18c0.7,0.2,1.4,0.7,1.7,1.3c0.3,0.7,0.3,1.5,0,2.2
			c-0.6,1.2-1.1,2.6-1.6,3.8c-0.4,1.1-0.8,2.2-1.3,3.2c5.3-2.3,10.7-5.4,13.7-8.8c0.4-0.5,1-0.7,1.6-0.8
			c12.7-1.4,19.1-7.8,19.1-18.9C198.1,13.7,187,5,173.3,5z"/>
	</g>
	<g>
		<path fill="#58A0D7" d="M55.7,65.3c-0.2,0-0.4,0-0.7-0.1l-0.3-0.1c-0.4-0.1-0.8-0.2-1.2-0.3c-4-1.2-17.2-5.7-24.7-12.6
			C13.3,51.4,0.8,40,0.8,26.3C0.8,11.8,16.9,0,36.6,0c19.7,0,35.8,11.8,35.8,26.3c0,12.1-8.6,21.2-22.7,24.2c2,3.5,4.4,7.4,7.6,10.3
			c0.6,0.5,1,1.2,1,2C58.2,64.2,57.1,65.3,55.7,65.3C55.7,65.3,55.7,65.3,55.7,65.3z M36.6,5c-17,0-30.8,9.6-30.8,21.3
			C5.8,37.4,16.9,47,30,47.3c0.6,0,1.3,0.3,1.7,0.7c3.7,3.7,10.2,7.1,16.4,9.6c-1.8-2.7-3.3-5.4-4.5-7.8c-0.4-0.7-0.4-1.6,0-2.3
			c0.4-0.7,1.1-1.2,1.9-1.3c13.7-1.9,21.9-9.3,21.9-19.8C67.4,14.6,53.6,5,36.6,5z"/>
	</g>
</g>
</svg>
