<svg xmlns="http://www.w3.org/2000/svg" xmlns:xlink="http://www.w3.org/1999/xlink" x="0px" y="0px"
	 viewBox="0 0 32 32" enable-background="new 0 0 32 32" xml:space="preserve">
	<path fill="#010101" d="M29.2,11.3l-8.5-8.5l0.7-0.7c1.1-1.1,2.6-1.8,4.2-1.8c1.6,0,3.1,0.6,4.2,1.8c2.3,2.3,2.3,6.1,0,8.5
		L29.2,11.3z M23.7,2.9l5.5,5.5c0.9-1.5,0.7-3.5-0.6-4.9C27.3,2.2,25.2,2,23.7,2.9z"/>
	<path fill="#010101" d="M20.6,3.8l6,10l-1.7,1l-6-10L20.6,3.8z"/>
	<path fill="#010101" d="M0.3,31.7l3-11.2l1.9,0.5l-2.1,7.8l7.9-2.1l0.5,1.9L0.3,31.7z"/>
	<path fill="#010101" d="M13.1,27.3l-2.4-6l-6-2.4L17.1,6.4l1.4,1.4L8.3,18.1l4,1.6l1.6,4l8.3-8.3l1.4,1.4L13.1,27.3z"/>
</svg>