<svg xmlns="http://www.w3.org/2000/svg" xmlns:xlink="http://www.w3.org/1999/xlink" x="0px" y="0px"
	 viewBox="0 0 33 32" enable-background="new 0 0 33 32" xml:space="preserve">
	<path fill="#fff" d="M12.6,18c-5,0-9-4-9-9c0-5,4-9,9-9c5,0,9,4,9,9C21.6,14,17.5,18,12.6,18z M12.6,2c-3.9,0-7,3.1-7,7
		c0,3.9,3.1,7,7,7c3.9,0,7-3.1,7-7C19.6,5.1,16.4,2,12.6,2z"/>
	<path fill="#fff" d="M23.6,18v-2c2.8,0,5-2.2,5-5c0-2.8-2.2-5-5-5V4c3.9,0,7,3.1,7,7C30.6,14.9,27.4,18,23.6,18z"/>
	<path fill="#fff" d="M32.6,30h-6v-2h3.7l-0.7-5.2l-3.2-0.9l0.5-1.9l4.5,1.2L32.6,30z"/>
	<path fill="#fff" d="M24.7,32H0.4l1.2-10.4L6.4,20L7,22l-3.5,1.1L2.7,30h19.8l-0.8-6.9L18.1,22l0.6-1.9l4.7,1.5L24.7,32z"/>
</svg>