<?xml version="1.0" encoding="utf-8"?>
<!-- Generator: Adobe Illustrator 18.0.0, SVG Export Plug-In . SVG Version: 6.00 Build 0)  -->
<!DOCTYPE svg PUBLIC "-//W3C//DTD SVG 1.1//EN" "http://www.w3.org/Graphics/SVG/1.1/DTD/svg11.dtd">
<svg version="1.1" id="Layer_1" xmlns="http://www.w3.org/2000/svg" xmlns:xlink="http://www.w3.org/1999/xlink" x="0px" y="0px"
	 viewBox="0 0 128 136" enable-background="new 0 0 128 136" xml:space="preserve">
<g>
	<g>
		<path fill="#58A0D7" d="M117.5,100.9H10.6c-5.4,0-9.8-4.4-9.8-9.8v-81c0-5.4,4.4-9.8,9.8-9.8h106.9c5.4,0,9.8,4.4,9.8,9.8v81
			C127.3,96.5,122.9,100.9,117.5,100.9z M10.6,5.3c-2.6,0-4.8,2.1-4.8,4.8v81c0,2.6,2.1,4.8,4.8,4.8h106.9c2.6,0,4.8-2.1,4.8-4.8
			v-81c0-2.6-2.1-4.8-4.8-4.8H10.6z"/>
	</g>
	<g>
		<path fill="#010101" d="M29.7,84.4c-1.4,0-2.5-1.1-2.5-2.5V41.7h-6.3v40.2c0,1.4-1.1,2.5-2.5,2.5c-1.4,0-2.5-1.1-2.5-2.5V41.6
			c0-2.7,2-5,4.5-5h7.3c2.5,0,4.5,2.2,4.5,5v40.3C32.2,83.3,31.1,84.4,29.7,84.4z"/>
	</g>
	<g>
		<path fill="#010101" d="M57.3,84.4c-1.4,0-2.5-1.1-2.5-2.5V61.7h-6.2v20.2c0,1.4-1.1,2.5-2.5,2.5c-1.4,0-2.5-1.1-2.5-2.5V61.6
			c0-2.7,2-5,4.5-5h7.3c2.5,0,4.5,2.2,4.5,5v20.3C59.8,83.3,58.6,84.4,57.3,84.4z"/>
	</g>
	<g>
		<path fill="#010101" d="M84.8,84.4c-1.4,0-2.5-1.1-2.5-2.5V31.7h-6.3v50.2c0,1.4-1.1,2.5-2.5,2.5c-1.4,0-2.5-1.1-2.5-2.5V31.6
			c0-2.7,2-5,4.5-5h7.3c2.5,0,4.5,2.2,4.5,5v50.2C87.3,83.3,86.2,84.4,84.8,84.4z"/>
	</g>
	<g>
		<path fill="#010101" d="M112.4,84.4c-1.4,0-2.5-1.1-2.5-2.5V47.8h-6.3v34.1c0,1.4-1.1,2.5-2.5,2.5c-1.4,0-2.5-1.1-2.5-2.5V47.8
			c0-2.7,2-5,4.5-5h7.3c2.5,0,4.5,2.2,4.5,5v34.1C114.9,83.3,113.8,84.4,112.4,84.4z"/>
	</g>
	<g>
		<path fill="#010101" d="M116.7,84.4H15.2c-1.4,0-2.5-1.1-2.5-2.5c0-1.4,1.1-2.5,2.5-2.5h101.5c1.4,0,2.5,1.1,2.5,2.5
			C119.2,83.3,118.1,84.4,116.7,84.4z"/>
	</g>
	<g>
		<path fill="#58A0D7" d="M91.7,135.7H36.2c-1.4,0-2.5-1.1-2.5-2.5c0-7.4,9.1-13.6,22.3-15.4v-16.5c0-1.4,1.1-2.5,2.5-2.5
			c1.4,0,2.5,1.1,2.5,2.5V120c0,1.3-1,2.4-2.3,2.5c-10.2,1-17,4.6-19.3,8.2h48.9c-2.2-3.6-9.1-7.2-19.2-8.2
			c-1.3-0.1-2.3-1.2-2.3-2.5v-18.7c0-1.4,1.1-2.5,2.5-2.5c1.4,0,2.5,1.1,2.5,2.5v16.5c13.2,1.8,22.3,8,22.3,15.4
			C94.2,134.6,93.1,135.7,91.7,135.7z"/>
	</g>
</g>
</svg>
