<svg xmlns="http://www.w3.org/2000/svg" xmlns:xlink="http://www.w3.org/1999/xlink" x="0px" y="0px"
	 viewBox="0 0 33 32" enable-background="new 0 0 33 32" xml:space="preserve">
	<path fill="#fff" d="M16.5,19c-5,0-9-4-9-9V0h18v10C25.5,15,21.5,19,16.5,19z M9.5,2v8c0,3.9,3.1,7,7,7c3.9,0,7-3.1,7-7V2H9.5z"
		/>
	<path fill="#fff" d="M16.5,15c-2.8,0-5-2.2-5-5V5h2v5c0,1.7,1.3,3,3,3V15z"/>
	<path fill="#fff" d="M15.5,23.5h2V31h-2V23.5z"/>
	<path fill="#fff" d="M7.5,30h18v2h-18V30z"/>
	<path fill="#fff" d="M27.5,10V8c1.7,0,3-1.3,3-3V4h-3V2h5v3C32.5,7.8,30.3,10,27.5,10z"/>
	<path fill="#fff" d="M5.5,10c-2.8,0-5-2.2-5-5V2h5v2h-3v1c0,1.7,1.3,3,3,3V10z"/>
	<path fill="#fff" d="M16.5,25c-2.2,0-4-1.8-4-4h2c0,1.1,0.9,2,2,2c1.1,0,2-0.9,2-2h2C20.5,23.2,18.7,25,16.5,25z"/>
</svg>