<svg xmlns="http://www.w3.org/2000/svg" xmlns:xlink="http://www.w3.org/1999/xlink" x="0px" y="0px"
	 viewBox="0 0 33 32" enable-background="new 0 0 33 32" xml:space="preserve">
	<path fill="#fff" d="M22.9,23.5l-7.4-7.2V5.9h2v9.6l6.8,6.6L22.9,23.5z"/>
	<path fill="#fff" d="M16.6,31.9c-4.1,0-8.3-1.6-11.3-4.7l1.4-1.4c4.7,4.7,12.1,5.4,17.6,1.8l1.1,1.7C22.7,31,19.6,31.9,16.6,31.9
		z"/>
	<path fill="#fff" d="M29.9,24.7l-1.7-1.1c3.7-5.5,2.9-12.9-1.8-17.6l1.4-1.4C33.2,9.9,34.1,18.4,29.9,24.7z"/>
	<path fill="#fff" d="M32.6,15.9h-2c0-6.6-4.8-12.4-11.3-13.7l0.4-2C27.1,1.7,32.6,8.3,32.6,15.9z"/>
	<path fill="#fff" d="M16.4,31.9c-8.8,0-16-7.2-16-16c0-7.6,5.4-14.2,12.8-15.7l0.4,2C7.2,3.5,2.5,9.2,2.5,15.9
		c0,7.7,6.3,14,14,14V31.9z"/>
</svg>