<?xml version="1.0" encoding="utf-8"?>
<!-- Generator: Adobe Illustrator 18.0.0, SVG Export Plug-In . SVG Version: 6.00 Build 0)  -->
<!DOCTYPE svg PUBLIC "-//W3C//DTD SVG 1.1//EN" "http://www.w3.org/Graphics/SVG/1.1/DTD/svg11.dtd">
<svg version="1.1" id="Layer_1" xmlns="http://www.w3.org/2000/svg" xmlns:xlink="http://www.w3.org/1999/xlink" x="0px" y="0px"
	 viewBox="0 0 32 30" enable-background="new 0 0 32 30" xml:space="preserve">
<path fill="#010101" d="M32,30H0V3h16v2H2v23h28V14h2V30z"/>
<path fill="#010101" d="M17.1,20.5l-1.9-3.8l-3.8-1.9L23.1,3.3l1.4,1.4l-9.6,9.6l1.9,0.9l0.9,1.9l9.6-9.6l1.4,1.4L17.1,20.5z"/>
<path fill="#010101" d="M30.1,7.5l-5.7-5.7l0.7-0.7C25.9,0.4,26.9,0,28,0c1.1,0,2.1,0.4,2.8,1.2C31.6,1.9,32,2.9,32,4
	c0,1.1-0.4,2.1-1.2,2.8L30.1,7.5z M27.5,2.1l2.5,2.5C30,4.4,30,4.2,30,4c0-0.5-0.2-1-0.6-1.4C28.9,2.1,28.2,1.9,27.5,2.1z"/>
<path fill="#010101" d="M7.2,24.8l2.8-8.3l1.9,0.6l-1.5,4.5l4.5-1.5l0.6,1.9L7.2,24.8z"/>
</svg>
