<?xml version="1.0" encoding="utf-8"?>
<!-- Generator: Adobe Illustrator 18.0.0, SVG Export Plug-In . SVG Version: 6.00 Build 0)  -->
<!DOCTYPE svg PUBLIC "-//W3C//DTD SVG 1.1//EN" "http://www.w3.org/Graphics/SVG/1.1/DTD/svg11.dtd">
<svg version="1.1" id="Layer_1" xmlns="http://www.w3.org/2000/svg" xmlns:xlink="http://www.w3.org/1999/xlink" x="0px" y="0px"
	 viewBox="0 0 22 33" enable-background="new 0 0 22 33" xml:space="preserve">
<path fill="#010101" d="M0,17.5h2v9H0V17.5z"/>
<path fill="#010101" d="M2,17.5H0c0-4.7,3-8.9,7.4-10.4L3.2,0.5H12v2H6.8l3.8,5.9L9.2,8.7C5,9.5,2,13.2,2,17.5z"/>
<path fill="#010101" d="M16,32.5H6c-3.3,0-6-2.7-6-6h2c0,2.2,1.8,4,4,4h10c2.2,0,4-1.8,4-4h2C22,29.8,19.3,32.5,16,32.5z"/>
<path fill="#010101" d="M20,17.5h2v9h-2V17.5z"/>
<path fill="#010101" d="M22,17.5h-2c0-4.3-3-8-7.2-8.8l-1.4-0.3L16.2,1L17.8,2l-3.3,5.1C19,8.6,22,12.8,22,17.5z"/>
<path fill="#010101" d="M11,24.5c-1.7,0-3-1.3-3-3h2c0,0.6,0.4,1,1,1c0.6,0,1-0.4,1-1c0-0.6-0.4-1-1-1c-1.7,0-3-1.3-3-3
	c0-1.7,1.3-3,3-3c1.7,0,3,1.3,3,3h-2c0-0.6-0.4-1-1-1c-0.6,0-1,0.4-1,1c0,0.6,0.4,1,1,1c1.7,0,3,1.3,3,3C14,23.1,12.7,24.5,11,24.5z
	"/>
<path fill="#010101" d="M10,11.5h2v2h-2V11.5z"/>
<path fill="#010101" d="M10,25.5h2v2h-2V25.5z"/>
</svg>
