<svg xmlns="http://www.w3.org/2000/svg" xmlns:xlink="http://www.w3.org/1999/xlink" x="0px" y="0px"
	 viewBox="0 0 32 32" enable-background="new 0 0 32 32" xml:space="preserve">
	<path fill="#808184" d="M16,6c0.3,0,0.5-0.2,0.5-0.5V4H17c0.3,0,0.5-0.2,0.5-0.5v-3C17.5,0.2,17.3,0,17,0h-2c-0.3,0-0.5,0.2-0.5,0.5
		v3C14.5,3.8,14.7,4,15,4h0.5v1.5C15.5,5.8,15.7,6,16,6z M15.5,1h1v2h-1V1z"/>
	<path fill="#808184" d="M4.8,31.8c0.1,0,0.2,0.1,0.2,0.1c0.2,0,0.4-0.1,0.4-0.3l4.3-8.2c1.9,1,4.1,1.5,6.3,1.5
		c2.2,0,4.3-0.5,6.3-1.5l4.3,8.2c0.1,0.2,0.3,0.3,0.4,0.3c0.1,0,0.2,0,0.2-0.1c0.2-0.1,0.3-0.4,0.2-0.7L23.2,23
		c1-0.6,1.9-1.3,2.8-2.1c1-1,1-2.6,0-3.5c-0.9-0.9-2.6-0.9-3.5,0c-0.5,0.5-1,0.9-1.5,1.2L18.5,14c0.9-0.7,1.5-1.8,1.5-3.1
		c0-2.2-1.8-4-4-4c-2.2,0-4,1.8-4,4c0,1.3,0.6,2.4,1.5,3.1l-2.4,4.5c-0.5-0.3-1.1-0.8-1.5-1.2c-0.9-0.9-2.6-0.9-3.5,0
		c-1,1-1,2.6,0,3.5c0.8,0.8,1.8,1.5,2.7,2.1l-4.3,8.2C4.4,31.4,4.5,31.7,4.8,31.8z M7.9,17.6c0.4,0,0.8,0.2,1.1,0.4
		c1.9,1.9,4.4,2.9,7.1,2.9s5.2-1,7.1-2.9c0.6-0.6,1.6-0.6,2.1,0c0.6,0.6,0.6,1.5,0,2.1c-2.5,2.5-5.7,3.8-9.2,3.8
		c-3.5,0-6.7-1.4-9.2-3.8c-0.6-0.6-0.6-1.5,0-2.1C7.1,17.7,7.5,17.6,7.9,17.6z M13,10.9c0-1.6,1.3-3,3-3c1.6,0,3,1.3,3,3
		c0,1.6-1.3,3-3,3C14.4,13.9,13,12.6,13,10.9z M14.4,14.6c0.5,0.2,1,0.4,1.6,0.4c0.6,0,1.1-0.1,1.6-0.3L20,19
		c-1.2,0.6-2.6,0.9-3.9,0.9c-1.4,0-2.7-0.3-4-0.9L14.4,14.6z"/>
</svg>