<svg xmlns="http://www.w3.org/2000/svg" xmlns:xlink="http://www.w3.org/1999/xlink" x="0px" y="0px"
	 viewBox="0 0 32 32" enable-background="new 0 0 32 32" xml:space="preserve">
	<path fill="#010101" d="M21,31.9c-4.7,0-9.9-2.2-14.1-6.5C0.2,18.7-1.7,9.3,2.6,3.6l1.6,1.2C0.6,9.7,2.3,18.1,8.3,24
		c5.9,5.9,14.3,7.6,19,3.8l1.2,1.5C26.4,31.1,23.8,31.9,21,31.9z"/>
	<path fill="#010101" d="M30.3,27.1l-7.5-7.5l-1.3,1.3c-1.4,1.4-3.3,2.2-5.3,2.2c-2,0-3.9-0.8-5.3-2.2C8,18,8,13.2,10.9,10.3L12.2,9
		L4.7,1.5l1.4-1.4L15,9l-2.7,2.7c-2.2,2.2-2.2,5.7,0,7.8c1,1,2.4,1.6,3.9,1.6c1.5,0,2.9-0.6,3.9-1.6l2.7-2.8l8.9,8.9L30.3,27.1z"/>
</svg>