<?xml version="1.0" encoding="utf-8"?>
<!-- Generator: Adobe Illustrator 18.0.0, SVG Export Plug-In . SVG Version: 6.00 Build 0)  -->
<!DOCTYPE svg PUBLIC "-//W3C//DTD SVG 1.1//EN" "http://www.w3.org/Graphics/SVG/1.1/DTD/svg11.dtd">
<svg version="1.1" id="Layer_1" xmlns="http://www.w3.org/2000/svg" xmlns:xlink="http://www.w3.org/1999/xlink" x="0px" y="0px"
	 viewBox="0 0 138 154" enable-background="new 0 0 138 154" xml:space="preserve">
<g>
	<g>
		<g>
			<g>
				<path fill="#010101" d="M89.1,129.5H52.3c-0.7,0-1.4-0.3-1.9-0.8c-0.5-0.5-0.7-1.2-0.6-2c2.4-19.6-8.2-31.2-8.3-31.4
					c-0.2-0.2-0.4-0.5-0.5-0.8c-3.7-5.7-5.6-12.3-5.6-19.1c0-19.5,15.9-35.4,35.4-35.4s35.4,15.9,35.4,35.4c0,7.9-2.5,15.4-7.4,21.6
					c-0.3,0.5-0.6,1-0.9,1.6c-3.1,5.2-8.2,13.8-6.4,28.1c0.1,0.7-0.1,1.4-0.6,2C90.5,129.2,89.8,129.5,89.1,129.5z M55,124.5h31.3
					c-1-14.3,4.2-23.1,7.4-28.5c0.4-0.6,0.7-1.1,1-1.7c0.1-0.1,0.1-0.2,0.2-0.3c4.2-5.4,6.4-11.9,6.4-18.7
					c0-16.8-13.7-30.4-30.4-30.4c-16.8,0-30.4,13.7-30.4,30.4c0,6,1.8,11.8,5.1,16.8c0,0.1,0.1,0.1,0.1,0.2
					C47.6,94.8,56.3,106.1,55,124.5z"/>
			</g>
			<g>
				<path fill="#010101" d="M66.7,128.2c-1.3,0-2.4-1-2.5-2.3c-1.8-26.3-8.8-48.3-9.2-49.4c0,0,0,0,0-0.1c-0.4-1.3,0.3-2.7,1.6-3.1
					c1.3-0.4,2.7,0.3,3.1,1.6c0,0,0,0,0,0c1,3,5.5,5.3,10.4,5.3c5,0,9.5-2.3,10.4-5.3c0.4-1.3,1.8-2,3.1-1.6c1.3,0.4,2,1.8,1.6,3.1
					c-1.7,5.2-7.9,8.8-15.2,8.8c-2.9,0-5.6-0.6-8-1.6c2.4,9.2,5.7,24.6,6.9,41.9c0.1,1.4-0.9,2.6-2.3,2.7
					C66.8,128.2,66.7,128.2,66.7,128.2z"/>
			</g>
			<g>
				<path fill="#010101" d="M73.7,128.2c-0.1,0-0.1,0-0.2,0c-1.4-0.1-2.4-1.3-2.3-2.7c1.9-27.5,9.3-50.4,9.4-50.6
					c0.4-1.3,1.8-2,3.2-1.6c1.3,0.4,2,1.8,1.6,3.2c-0.1,0.2-7.3,22.5-9.2,49.4C76.1,127.2,75,128.2,73.7,128.2z"/>
			</g>
			<g>
				<path fill="#58A0D7" d="M13.8,116.5c-1,0-2-0.7-2.4-1.7c-0.4-1.3,0.3-2.7,1.6-3.2l19.7-6.7c1.3-0.4,2.7,0.3,3.2,1.6
					c0.4,1.3-0.3,2.7-1.6,3.2l-19.7,6.7C14.4,116.4,14.1,116.5,13.8,116.5z"/>
			</g>
			<g>
				<path fill="#58A0D7" d="M24,51.4c-0.3,0-0.5,0-0.8-0.1L1.9,44.5c-1.3-0.4-2-1.8-1.6-3.1c0.4-1.3,1.8-2,3.1-1.6l21.3,6.8
					c1.3,0.4,2,1.8,1.6,3.1C26.1,50.7,25.1,51.4,24,51.4z"/>
			</g>
			<g>
				<path fill="#58A0D7" d="M125,116.5c-0.3,0-0.5,0-0.8-0.1l-19.7-6.7c-1.3-0.4-2-1.9-1.6-3.2c0.4-1.3,1.9-2,3.2-1.6l19.7,6.7
					c1.3,0.4,2,1.9,1.6,3.2C127,115.8,126,116.5,125,116.5z"/>
			</g>
			<g>
				<path fill="#58A0D7" d="M113.9,51.4c-1.1,0-2-0.7-2.4-1.7c-0.4-1.3,0.3-2.7,1.6-3.1l21.3-6.8c1.3-0.4,2.7,0.3,3.1,1.6
					c0.4,1.3-0.3,2.7-1.6,3.1l-21.3,6.8C114.4,51.3,114.1,51.4,113.9,51.4z"/>
			</g>
			<g>
				<path fill="#58A0D7" d="M71.1,23.7c-1.4,0-2.5-1.1-2.5-2.5V2.7c0-1.4,1.1-2.5,2.5-2.5s2.5,1.1,2.5,2.5v18.5
					C73.6,22.5,72.5,23.7,71.1,23.7z"/>
			</g>
		</g>
	</g>
	<g>
		<path fill="#010101" d="M88.4,141.5h-35c-1.4,0-2.5-1.1-2.5-2.5c0-1.4,1.1-2.5,2.5-2.5h35c1.4,0,2.5,1.1,2.5,2.5
			C90.9,140.4,89.8,141.5,88.4,141.5z"/>
	</g>
	<g>
		<path fill="#010101" d="M83.2,153.5H58.7c-1.4,0-2.5-1.1-2.5-2.5c0-1.4,1.1-2.5,2.5-2.5h24.5c1.4,0,2.5,1.1,2.5,2.5
			C85.7,152.4,84.6,153.5,83.2,153.5z"/>
	</g>
</g>
</svg>
