<svg xmlns="http://www.w3.org/2000/svg" xmlns:xlink="http://www.w3.org/1999/xlink" x="0px" y="0px"
	 viewBox="0 0 33 32" enable-background="new 0 0 33 32" xml:space="preserve">
	<path fill="#fff" d="M32.5,31h-32V18h32V31z M2.5,29h28v-9h-28V29z"/>
	<path fill="#fff" d="M16.5,23c-1.7,0-3-1.3-3-3h2c0,0.6,0.4,1,1,1c0.6,0,1-0.4,1-1h2C19.5,21.7,18.2,23,16.5,23z"/>
	<path fill="#fff" d="M23.5,8h-4V6c0-1.7-1.3-3-3-3c-1.7,0-3,1.3-3,3v2h-4V6h2c0-2.8,2.2-5,5-5c2.8,0,5,2.2,5,5h2V8z"/>
	<path fill="#fff" d="M32.5,16h-2v-4h-28v4h-2v-6h32V16z"/>
</svg>