<svg xmlns="http://www.w3.org/2000/svg" xmlns:xlink="http://www.w3.org/1999/xlink" x="0px" y="0px"
	 viewBox="0 0 34 34" enable-background="new 0 0 34 34" xml:space="preserve">
	<path fill="#808184" d="M5.4,32.9c2,0,4.2-1,5.7-2.6L28,13.2c0.9-0.9,1.3-2,1.4-3.2c0-1.2-0.5-2.4-1.3-3.2c-1.8-1.8-4.7-1.8-6.5,0
		L8.7,20.3c-0.2,0.2-0.2,0.6,0,0.8c0.2,0.2,0.5,0.2,0.8,0L22.4,7.5c1.4-1.4,3.6-1.4,4.9,0c0.7,0.7,1,1.5,1,2.5c0,0.9-0.4,1.8-1,2.5
		L10.4,29.6C8.6,31.4,5,33,2.8,30.8c-1-1-1.6-2.3-1.5-3.7c0.1-1.4,0.7-2.7,1.8-3.8L22.4,3.7c1-1,2.6-1.6,4.4-1.6c0,0,0,0,0,0
		c1.8,0,3.3,0.6,4.3,1.6c1,1,1.6,2.6,1.6,4.4c0,1.8-0.6,3.4-1.6,4.4L16.2,27.9c-0.2,0.2-0.2,0.6,0,0.8c0.2,0.2,0.6,0.2,0.8,0
		l14.9-15.5c1.2-1.2,1.9-3.1,1.9-5.1c0-2-0.7-3.9-1.9-5.1C30.7,1.7,28.8,1,26.8,1c0,0,0,0,0,0c-2,0-3.9,0.7-5.1,1.9L2.3,22.5
		c-2.7,2.7-2.8,6.5-0.3,9C3,32.5,4.2,32.9,5.4,32.9z"/>
</svg>