<svg xmlns="http://www.w3.org/2000/svg" xmlns:xlink="http://www.w3.org/1999/xlink" x="0px" y="0px"
	 viewBox="0 0 37 37" enable-background="new 0 0 37 37" xml:space="preserve">
	<path fill="#808184" d="M27,2.6c-2.5,0-4.9,0.9-6.7,2.6c-0.7,0.6-1.3,1.4-1.8,2.2c-0.5-0.8-1.1-1.5-1.8-2.2
		c-1.8-1.7-4.2-2.6-6.7-2.6c-5.5,0-10,4.5-10,10c0,3.7,1.2,6.7,3.9,9.8C7.8,27,17.8,34,18.2,34.3c0.1,0.1,0.2,0.1,0.3,0.1
		c0.1,0,0.2,0,0.3-0.1C19.2,34,29.2,27,33.1,22.4c2.7-3.2,3.9-6.1,3.9-9.8C37,7.1,32.5,2.6,27,2.6z M32.4,21.8
		c-3.5,4.1-12.2,10.3-13.9,11.5c-1.7-1.2-10.4-7.5-13.9-11.5c-2.5-3-3.6-5.7-3.6-9.2c0-5,4-9,9-9c2.2,0,4.4,0.8,6,2.3
		c0.8,0.8,1.5,1.7,2,2.7c0.2,0.3,0.7,0.3,0.9,0c0.5-1,1.2-1.9,2-2.7c1.7-1.5,3.8-2.3,6-2.3c5,0,9,4,9,9C36,16.1,34.9,18.8,32.4,21.8z
		"/>
</svg>