<svg xmlns="http://www.w3.org/2000/svg" xmlns:xlink="http://www.w3.org/1999/xlink" x="0px" y="0px"
	 viewBox="0 0 32 32" enable-background="new 0 0 32 32" xml:space="preserve">
	<path fill="#fff" d="M13,26C5.8,26,0,20.2,0,13S5.8,0,13,0s13,5.8,13,13S20.2,26,13,26z M13,2C6.9,2,2,6.9,2,13
		c0,6.1,4.9,11,11,11c6.1,0,11-4.9,11-11C24,6.9,19.1,2,13,2z"/>
	<path fill="#fff" d="M29,32c-0.8,0-1.5-0.3-2.1-0.9l-5.6-5.4l1.4-1.4l5.6,5.4c0.4,0.4,1,0.4,1.4,0c0.2-0.2,0.3-0.4,0.3-0.7
		c0-0.3-0.1-0.5-0.3-0.7l-5.4-5.6l1.4-1.4l5.4,5.6c0.6,0.6,0.9,1.3,0.9,2.1c0,0.8-0.3,1.6-0.9,2.1C30.5,31.7,29.8,32,29,32z"/>
	<path fill="#fff" d="M7.3,18.7c-3.1-3.1-3.1-8.2,0-11.3l1.4,1.4c-2.3,2.3-2.3,6.1,0,8.5L7.3,18.7z"/>
</svg>