<svg xmlns="http://www.w3.org/2000/svg" xmlns:xlink="http://www.w3.org/1999/xlink" x="0px" y="0px"
	 viewBox="0 0 35 35" enable-background="new 0 0 35 35" xml:space="preserve">
	<path fill="#808184" d="M21.7,4.5c-1.1-1.9-2.6-3-4.2-3c-1.6,0-3.1,1-4.2,3L0.9,25.6c-1.1,1.9-1.2,4-0.3,5.5
		c0.9,1.5,2.6,2.4,4.7,2.4h24.3c0,0,0,0,0,0c2.1,0,3.8-0.9,4.7-2.4c0.9-1.6,0.8-3.6-0.3-5.5L21.7,4.5z M33.4,30.6
		c-0.7,1.2-2.1,1.9-3.8,1.9H5.3c-1.7,0-3.1-0.7-3.8-1.9c-0.7-1.3-0.6-2.9,0.3-4.5L14.1,5c0.9-1.6,2.1-2.5,3.4-2.5
		c1.3,0,2.5,0.9,3.4,2.5l12.3,21.2C34,27.7,34.1,29.4,33.4,30.6z"/>
	<path fill="#808184" d="M17.4,21.5c0.3,0,0.5-0.2,0.5-0.5V11c0-0.3-0.2-0.5-0.5-0.5c-0.3,0-0.5,0.2-0.5,0.5v10
		C16.9,21.3,17.2,21.5,17.4,21.5z"/>
	<path fill="#808184" d="M17.4,24c-1.1,0-2,0.9-2,2s0.9,2,2,2c1.1,0,2-0.9,2-2S18.5,24,17.4,24z M17.4,27c-0.6,0-1-0.4-1-1
		c0-0.6,0.4-1,1-1c0.6,0,1,0.4,1,1C18.4,26.6,17.9,27,17.4,27z"/>
</svg>