<svg xmlns="http://www.w3.org/2000/svg" xmlns:xlink="http://www.w3.org/1999/xlink" x="0px" y="0px"
	 viewBox="0 0 41 32" enable-background="new 0 0 41 32" xml:space="preserve">
	<path fill="#808184" d="M9.2,31.9C9.3,31.9,9.3,31.9,9.2,31.9C9.3,32,9.4,32,9.5,32c0,0,0.1,0,0.1,0l10.9-3l10.9,3c0,0,0.1,0,0.1,0
		c0.1,0,0.2,0,0.2-0.1c0,0,0,0,0,0l9-5.5c0.2-0.1,0.3-0.3,0.2-0.6L36,8.4c0-0.1-0.1-0.3-0.3-0.3c-0.1-0.1-0.3,0-0.4,0l-5,2.8
		c-0.2,0.1-0.3,0.4-0.2,0.7c0.1,0.2,0.4,0.3,0.7,0.2l4.4-2.5l4.7,16.5l-8,4.9L30,15.4c0-0.3-0.3-0.5-0.6-0.4c-0.3,0-0.5,0.3-0.4,0.6
		l1.9,15.3L21,28.1v-2.7c0-0.3-0.2-0.5-0.5-0.5c-0.3,0-0.5,0.2-0.5,0.5v2.7l-9.9,2.7L12,15.6c0-0.3-0.2-0.5-0.4-0.6
		c-0.3,0-0.5,0.2-0.6,0.4L9.1,30.7l-8-4.9L5.8,9.2l4.4,2.5c0.2,0.1,0.5,0,0.7-0.2c0.1-0.2,0-0.5-0.2-0.7l-5-2.8C5.6,8,5.4,8,5.3,8
		C5.2,8.1,5,8.2,5,8.4L0,25.9c-0.1,0.2,0,0.4,0.2,0.6L9.2,31.9z"/>
	<path fill="#808184" d="M20.2,23.4c0.1,0.1,0.2,0.1,0.3,0.1c0.1,0,0.2,0,0.3-0.1c0.3-0.3,8.2-7.5,8.2-14.9C29,3.7,25.3,0,20.5,0
		C15.7,0,12,3.7,12,8.5C12,15.7,19.8,23.1,20.2,23.4z M20.5,1C24.8,1,28,4.2,28,8.5c0,6.1-6,12.3-7.5,13.8C19,20.8,13,14.5,13,8.5
		C13,4.2,16.2,1,20.5,1z"/>
	<path fill="#808184" d="M25,8.5C25,6,23,4,20.5,4C18,4,16,6,16,8.5c0,2.5,2,4.5,4.5,4.5C23,13,25,11,25,8.5z M20.5,12
		c-1.9,0-3.5-1.6-3.5-3.5C17,6.6,18.6,5,20.5,5S24,6.6,24,8.5C24,10.4,22.4,12,20.5,12z"/>
</svg>