<?xml version="1.0" encoding="utf-8"?>
<!-- Generator: Adobe Illustrator 18.0.0, SVG Export Plug-In . SVG Version: 6.00 Build 0)  -->
<!DOCTYPE svg PUBLIC "-//W3C//DTD SVG 1.1//EN" "http://www.w3.org/Graphics/SVG/1.1/DTD/svg11.dtd">
<svg version="1.1" id="Layer_1" xmlns="http://www.w3.org/2000/svg" xmlns:xlink="http://www.w3.org/1999/xlink" x="0px" y="0px"
	 viewBox="0 0 32 32" enable-background="new 0 0 32 32" xml:space="preserve">
<path fill="#010101" d="M32,29H0V13h2v14h28V13h2V29z"/>
<path fill="#010101" d="M32,11H0V3h32V11z M2,9h28V5H2V9z"/>
<path fill="#010101" d="M4,6h2v2H4V6z"/>
<path fill="#010101" d="M7,6h2v2H7V6z"/>
<path fill="#010101" d="M10,6h2v2h-2V6z"/>
<path fill="#010101" d="M12,25H4V13h8V25z M6,23h4v-8H6V23z"/>
<path fill="#010101" d="M28,25H14V13h14V25z M16,23h10v-8H16V23z"/>
</svg>
