<?xml version="1.0" encoding="utf-8"?>
<!-- Generator: Adobe Illustrator 18.0.0, SVG Export Plug-In . SVG Version: 6.00 Build 0)  -->
<!DOCTYPE svg PUBLIC "-//W3C//DTD SVG 1.1//EN" "http://www.w3.org/Graphics/SVG/1.1/DTD/svg11.dtd">
<svg version="1.1" id="Layer_1" xmlns="http://www.w3.org/2000/svg" xmlns:xlink="http://www.w3.org/1999/xlink" x="0px" y="0px"
	 viewBox="0 0 32 32" enable-background="new 0 0 32 32" xml:space="preserve">
<path fill="#010101" d="M20.9,21.5l-1.8-0.9l2.5-4.9c3.1-3.1,3.1-8.2,0-11.3c-3.1-3.1-8.2-3.1-11.3,0c-3.1,3.1-3.1,8.2,0,11.3
	l0.1,0.1l2.4,4.8l-1.8,0.9l-2.3-4.5C5,13,5.1,6.8,8.9,2.9C12.8-1,19.2-1,23.1,2.9c3.9,3.9,3.9,10.1,0.1,14L20.9,21.5z"/>
<path fill="#010101" d="M19.9,22l0.2,2l-8,1l-0.2-2L19.9,22z"/>
<path fill="#010101" d="M19.9,25l0.2,2l-8,1l-0.2-2L19.9,25z"/>
<path fill="#010101" d="M16,32c-1.7,0-3-1.3-3-3h2c0,0.6,0.4,1,1,1c0.6,0,1-0.4,1-1h2C19,30.6,17.6,32,16,32z"/>
<path fill="#010101" d="M12,10h-2c0-3.3,2.7-6,6-6v2C13.8,6,12,7.8,12,10z"/>
</svg>
