<?xml version="1.0" encoding="utf-8"?>
<!-- Generator: Adobe Illustrator 18.0.0, SVG Export Plug-In . SVG Version: 6.00 Build 0)  -->
<!DOCTYPE svg PUBLIC "-//W3C//DTD SVG 1.1//EN" "http://www.w3.org/Graphics/SVG/1.1/DTD/svg11.dtd">
<svg version="1.1" id="Layer_1" xmlns="http://www.w3.org/2000/svg" xmlns:xlink="http://www.w3.org/1999/xlink" x="0px" y="0px"
	 viewBox="0 0 16 16" enable-background="new 0 0 16 16" xml:space="preserve">
<g>
	<path fill="#010101" d="M2.3,3.9l3.5-3.5l3.5,3.5L6,7.2L5.8,7.4L2.3,3.9L2.3,3.9z M5.8,7L6,6.9L5.8,7L5.8,7z M3,3.9l2.8,2.8
		l2.8-2.8L5.8,1.1L3,3.9L3,3.9z"/>
</g>
<g>
	<path fill="#010101" d="M2.3,12.1l3.5-3.5l3.5,3.5L6,15.4l-0.2,0.2L2.3,12.1L2.3,12.1z M5.8,15.2L6,15L5.8,15.2L5.8,15.2z M3,12.1
		l2.8,2.8l2.8-2.8L5.8,9.3L3,12.1L3,12.1z"/>
</g>
<g>
	<path fill="#010101" d="M6.8,8l3.5-3.5L13.8,8l-3.3,3.3l-0.2,0.2L6.8,8L6.8,8z M10.3,11.1l0.2-0.2L10.3,11.1L10.3,11.1z M7.5,8
		l2.8,2.8L13.1,8l-2.8-2.8L7.5,8L7.5,8z"/>
</g>
</svg>
