<svg xmlns="http://www.w3.org/2000/svg" xmlns:xlink="http://www.w3.org/1999/xlink" x="0px" y="0px"
	 viewBox="0 0 32 32" enable-background="new 0 0 32 32" xml:space="preserve">
	<path fill="#808184" d="M0.6,5.7c-0.8,0.8-0.7,2,0,2.7c0,0,2.7,2.6,6.5,6.4c0.1,0.1,0.2,0.1,0.4,0.1c0.1,0,0.3,0,0.4-0.1
		c0.2-0.2,0.2-0.5,0-0.7c-0.6-0.6-1.1-1.1-1.6-1.6l1.6-1.6c0.2-0.2,0.2-0.5,0-0.7c-0.2-0.2-0.5-0.2-0.7,0l-1.6,1.6
		c-0.9-0.9-1.7-1.6-2.3-2.3l3.6-3.6C7,5.7,7,5.4,6.8,5.2C6.6,5,6.3,5,6.1,5.2L2.5,8.8C1.8,8.1,1.4,7.7,1.3,7.7
		c-0.2-0.2-0.5-0.8,0-1.3l5-5c0.2-0.2,0.7-0.6,1.3,0c0,0,2.5,2.9,6.4,6.7c0.2,0.2,0.5,0.2,0.7,0c0.2-0.2,0.2-0.5,0-0.7
		c-3.8-3.8-6.3-6.6-6.4-6.7c-0.9-0.9-2-0.6-2.7,0L0.6,5.7z"/>
	<path fill="#808184" d="M21.7,24.1c-0.2-0.2-0.5-0.2-0.7,0l-1.6,1.6c-0.5-0.5-1-1-1.5-1.5c-0.2-0.2-0.5-0.2-0.7,0
		c-0.2,0.2-0.2,0.5,0,0.7c3.7,3.7,6.3,6.4,6.3,6.5c0.3,0.3,0.8,0.5,1.3,0.5l0,0c0.5,0,1.1-0.2,1.4-0.5l5-5c0.6-0.6,0.7-1.7,0.1-2.3
		l-6.7-6.7c-0.2-0.2-0.5-0.2-0.7,0c-0.2,0.2-0.2,0.5,0,0.7l6.7,6.7c0.2,0.2,0.2,0.6-0.1,0.9l-5,5c-0.1,0.1-0.4,0.2-0.7,0.2l0,0
		c-0.2,0-0.4,0-0.6-0.2c0,0-0.4-0.5-1.2-1.2l3.6-3.6c0.2-0.2,0.2-0.5,0-0.7c-0.2-0.2-0.5-0.2-0.7,0l-3.6,3.6
		c-0.6-0.6-1.4-1.4-2.2-2.3l1.6-1.6C21.9,24.6,21.9,24.3,21.7,24.1z"/>
	<path fill="#808184" d="M0.1,31.7c0.1,0.1,0.2,0.1,0.4,0.1c0,0,0.1,0,0.1,0l10-3c0.1,0,0.2-0.1,0.2-0.1l17-17.1c0,0,0-0.1,0.1-0.1
		l3.6-3.6C31.8,7.6,32,7.3,32,6.8c0-0.4-0.2-0.8-0.5-1.1l-5.2-5.2c-0.6-0.6-1.6-0.6-2.2,0l-3.7,3.7c0,0,0,0.1-0.1,0.1l-17,17
		c-0.1,0.1-0.1,0.1-0.1,0.2L0,31.2C0,31.4,0,31.6,0.1,31.7z M20.8,5.3l1,1L6.3,21.8l-1.7-0.4L20.8,5.3z M7,22.6L22.5,7.1l2.4,2.4
		L9.3,24.9H7V22.6z M26.8,11.3L10.6,27.6l-0.6-2l15.6-15.4L26.8,11.3z M4,22.3l2,0.5v2.7c0,0.3,0.2,0.5,0.5,0.5h2.6l0.6,2.2l-8.4,2.5
		L4,22.3z M24.8,1.2C25,1,25.4,1,25.6,1.2l5.2,5.2C30.9,6.6,31,6.7,31,6.8c0,0.1-0.1,0.3-0.2,0.4l-3.4,3.4l-6-6L24.8,1.2z"/>
</svg>