<svg xmlns="http://www.w3.org/2000/svg" xmlns:xlink="http://www.w3.org/1999/xlink" x="0px" y="0px"
	 viewBox="0 0 35 35" enable-background="new 0 0 35 35" xml:space="preserve">
	<path fill="#808184" d="M20,5.4c0-1.9-1.6-3.9-5-3.9c-3.1,0-5.1,1.6-5.1,3.9c0,1.4,0.6,2,0.9,2.4C11,8,11.1,8.1,11.1,8.2
		c0,0.2,0,0.3-0.6,0.3H4.4c-2.3,0-4.4,1.9-4.4,4v3.7c0,0.9,0.6,1.5,1.4,1.5c0.5,0,0.8-0.3,1.1-0.5c0.5-0.3,1-0.7,2-0.7
		c1.7,0,3.5,1.4,3.5,4C8,23.1,6.2,25,4.5,25c-1,0-1.5-0.4-2-0.8c-0.3-0.3-0.7-0.6-1.2-0.6c-0.8,0-1.4,0.6-1.4,1.6v4.1
		c0,2.2,2.1,4.3,4.4,4.3h6.1c0.9,0,1.5-0.6,1.5-1.4c0-0.5-0.3-0.8-0.5-1.1c-0.3-0.4-0.7-0.8-0.7-1.7c0-1.8,1.6-2.9,4.1-2.9
		c2.5,0,4.1,1.1,4.1,2.9c0,1-0.3,1.4-0.7,1.7c-0.2,0.3-0.5,0.6-0.5,1.1c0,0.8,0.6,1.4,1.5,1.4l3.9,0c2.2,0,3.7-1.7,3.7-4.1v-4.6
		c0-0.1,0.3-0.6,0.8-0.6c0.1,0,0.2,0.1,0.4,0.3c0.4,0.4,1,0.9,2.4,0.9c2.2,0,4.4-1.7,4.4-4.9c0-3.5-2-5-4-5c-1.3,0-2.1,0.6-2.6,1
		c-0.2,0.2-0.4,0.4-0.6,0.4c-0.5,0-0.8-0.5-0.8-0.6c0,0,0,0,0,0v-3.6c0-2.4-1.5-4.2-3.7-4.2h-3.9c0,0,0,0,0,0c-0.5,0-0.5-0.1-0.5-0.3
		c0-0.1,0.1-0.2,0.3-0.4C19.5,7.4,20,6.8,20,5.4z M18.4,7.1c-0.2,0.3-0.5,0.6-0.5,1.1c0,0.6,0.2,1.2,1.5,1.3c0,0,0,0,0.1,0h3.9
		c1.7,0,2.7,1.6,2.7,3.2v3.6c0,0,0,0.1,0,0.1c0.1,0.6,0.8,1.4,1.8,1.4c0.5,0,0.8-0.3,1.2-0.6c0.5-0.4,1-0.8,2-0.8c1.8,0,3,1.6,3,4
		c0,2.7-1.8,3.9-3.4,3.9c-1,0-1.4-0.3-1.7-0.7c-0.3-0.2-0.6-0.5-1.1-0.5c-1,0-1.7,0.8-1.8,1.4c0,0,0,0.1,0,0.1v4.7
		c0,1.5-0.8,3.1-2.7,3.1l-3.9,0c-0.6,0-0.6-0.3-0.6-0.4c0-0.1,0.1-0.2,0.3-0.4c0.4-0.4,0.9-1,0.9-2.4c0-1.9-1.6-3.9-5.1-3.9
		c-3,0-5.1,1.6-5.1,3.9c0,1.4,0.6,2,0.9,2.4c0.2,0.2,0.3,0.3,0.3,0.4c0,0.1,0,0.4-0.5,0.4H4.4c-1.7,0-3.4-1.6-3.4-3.3v-4.1
		c0-0.6,0.3-0.6,0.4-0.6c0.1,0,0.3,0.2,0.5,0.3c0.5,0.4,1.3,1,2.6,1C6.7,26,9,23.8,9,20.5c0-3.2-2.3-5-4.5-5c-1.3,0-2.1,0.6-2.6,0.9
		c-0.2,0.2-0.4,0.3-0.5,0.3c-0.1,0-0.4,0-0.4-0.6v-3.7c0-1.8,1.8-3,3.4-3h6.1c0,0,0,0,0,0l0,0c1.2,0,1.5-0.7,1.5-1.3
		c0-0.5-0.3-0.8-0.5-1.1c-0.3-0.4-0.7-0.8-0.7-1.7c0-1.7,1.7-2.9,4.1-2.9c2.5,0,4,1.1,4,2.9C19,6.4,18.7,6.8,18.4,7.1z"/>
</svg>