<?xml version="1.0" encoding="utf-8"?>
<!-- Generator: Adobe Illustrator 18.0.0, SVG Export Plug-In . SVG Version: 6.00 Build 0)  -->
<!DOCTYPE svg PUBLIC "-//W3C//DTD SVG 1.1//EN" "http://www.w3.org/Graphics/SVG/1.1/DTD/svg11.dtd">
<svg version="1.1" id="Layer_1" xmlns="http://www.w3.org/2000/svg" xmlns:xlink="http://www.w3.org/1999/xlink" x="0px" y="0px"
	 viewBox="0 0 32 32" enable-background="new 0 0 32 32" xml:space="preserve">
<path fill="#010101" d="M10.5,14H8v-2h1.5l3.4-4.3V4.1c0-2.2,1.8-4,4-4c2.2,0,4,1.8,4,4h-2c0-1.1-0.9-2-2-2c-1.1,0-2,0.9-2,2v4.3
	L10.5,14z"/>
<path fill="#010101" d="M27.6,31.8l-11,0l-6.8-1.9H8v-2l2.3,0l6.8,1.9h9l3.5-14l-10.7-1.9V4.1h2v8.1l11.1,2L27.6,31.8z"/>
<path fill="#010101" d="M6,29.8H0.1V12H6V29.8z M2.1,27.8h2V14h-2V27.8z"/>
</svg>
