<svg xmlns="http://www.w3.org/2000/svg" xmlns:xlink="http://www.w3.org/1999/xlink" x="0px" y="0px"
	 viewBox="0 0 40 40" enable-background="new 0 0 40 40" xml:space="preserve">
	<path fill="#808184" d="M39.5,4C39.2,4,39,4.2,39,4.5v31c0,0.3,0.2,0.5,0.5,0.5c0.3,0,0.5-0.2,0.5-0.5v-31C40,4.2,39.8,4,39.5,4z"/>
	<path fill="#808184" d="M37.7,5.2c-0.2-0.1-0.4-0.1-0.5,0.1l-0.6,0.4c-3,2.4-8,6.3-18.1,6.3H4.6C3.2,12,2,13.2,2,14.7v10.7
		C2,26.8,3.2,28,4.6,28H8c0.1,1.1,0.5,3.8,2.5,5.8c1.5,1.5,3.5,2.2,6,2.2c0.3,0,0.5-0.2,0.5-0.5c0-0.3-0.2-0.5-0.5-0.5
		c-2.2,0-4-0.7-5.3-1.9C9.5,31.4,9.1,29,9,28h3c0.1,0.7,0.4,1.9,1.3,2.8c0.8,0.8,1.9,1.2,3.2,1.2c0.3,0,0.5-0.2,0.5-0.5
		c0-0.3-0.2-0.5-0.5-0.5c-1.1,0-1.9-0.3-2.5-0.9c-0.7-0.7-0.9-1.5-1-2.1h5.4c10.2,0,15.2,4,18.2,6.3l0.5,0.4c0.1,0.1,0.2,0.1,0.3,0.1
		c0.1,0,0.1,0,0.2-0.1c0.2-0.1,0.3-0.3,0.3-0.4V5.7C38,5.5,37.9,5.3,37.7,5.2z M3,25.4V14.7C3,13.8,3.7,13,4.6,13H8v14H4.6
		C3.7,27,3,26.3,3,25.4z M37,33.3c-3.1-2.5-8.3-6.3-18.6-6.3h-5.8c0,0-0.1,0-0.1,0c0,0,0,0,0,0c-0.1,0-0.1,0-0.2,0H9V13h9.5
		C28.7,13,33.9,9.1,37,6.7L37,33.3L37,33.3z"/>
	<path fill="#808184" d="M0.5,25.9c0.3,0,0.5-0.2,0.5-0.5V14.6c0-0.3-0.2-0.5-0.5-0.5c-0.3,0-0.5,0.2-0.5,0.5v10.7
		C0,25.6,0.2,25.9,0.5,25.9z"/>
</svg>