<?xml version="1.0" encoding="utf-8"?>
<!-- Generator: Adobe Illustrator 18.0.0, SVG Export Plug-In . SVG Version: 6.00 Build 0)  -->
<!DOCTYPE svg PUBLIC "-//W3C//DTD SVG 1.1//EN" "http://www.w3.org/Graphics/SVG/1.1/DTD/svg11.dtd">
<svg version="1.1" id="Layer_1" xmlns="http://www.w3.org/2000/svg" xmlns:xlink="http://www.w3.org/1999/xlink" x="0px" y="0px"
	 viewBox="0 0 32 32" enable-background="new 0 0 32 32" xml:space="preserve">
<path fill="#010101" d="M3,9h2v13H3V9z"/>
<path fill="#010101" d="M27,9h2v13h-2V9z"/>
<path fill="#010101" d="M17.2,32h-2.5l-9.4-5C3.2,25.7,3,24.2,3,22h2c0,2,0.1,2.5,1.5,3.3l0,0l8.7,4.7h1.5l8.8-4.7
	C26.9,24.5,27,24,27,22h2c0,2.2-0.2,3.7-2.4,5l-0.1,0.1L17.2,32z"/>
<path fill="#010101" d="M9,16h14v2H9V16z"/>
<path fill="#010101" d="M9,20h14v2H9V20z"/>
<path fill="#010101" d="M9,12h7v2H9V12z"/>
<path fill="#010101" d="M29,7h-7c-2.5,0-4.8-1.4-6-3.4c-1.2,2-3.5,3.4-6,3.4H3V5h7c2.8,0,5-2.2,5-5h2c0,2.8,2.2,5,5,5h7V7z"/>
</svg>
