<svg xmlns="http://www.w3.org/2000/svg" xmlns:xlink="http://www.w3.org/1999/xlink" x="0px" y="0px"
	 viewBox="0 0 32 32" enable-background="new 0 0 32 32" xml:space="preserve">
	<path fill="#010101" d="M23.5,17l-1.4-1.4L30,7.7V2h-5.7l-7.9,7.9L15,8.5L23.5,0H32v8.5L23.5,17z"/>
	<path fill="#010101" d="M18.1,28.8l-15-15l10.3-3.7l0.7,1.9l-7.3,2.6l10.5,10.5l2.6-7.3l1.9,0.7L18.1,28.8z"/>
	<path fill="#010101" d="M0,32l5.1-11.4l1.8,0.8l-3,6.6l6.6-3l0.8,1.8L0,32z"/>
	<path fill="#010101" d="M16.2,14.3l1.4,1.4l-5.5,5.7L10.7,20L16.2,14.3L16.2,14.3z"/>
</svg>