<?xml version="1.0" encoding="utf-8"?>
<!-- Generator: Adobe Illustrator 18.0.0, SVG Export Plug-In . SVG Version: 6.00 Build 0)  -->
<!DOCTYPE svg PUBLIC "-//W3C//DTD SVG 1.1//EN" "http://www.w3.org/Graphics/SVG/1.1/DTD/svg11.dtd">
<svg version="1.1" id="Layer_1" xmlns="http://www.w3.org/2000/svg" xmlns:xlink="http://www.w3.org/1999/xlink" x="0px" y="0px"
	 viewBox="0 0 32 32" enable-background="new 0 0 32 32" xml:space="preserve">
<path fill="#010101" d="M15,5h2v20h-2V5z"/>
<path fill="#010101" d="M17,32h-2c0-1.7-1.3-3-3-3H1v-2h11C14.8,27,17,29.2,17,32z"/>
<path fill="#010101" d="M17,32h-2c0-2.8,2.2-5,5-5h11v2H20C18.3,29,17,30.3,17,32z"/>
<path fill="#010101" d="M13,25H1V0h11c2.8,0,5,2.2,5,5h-2c0-1.7-1.3-3-3-3H3v21h10V25z"/>
<path fill="#010101" d="M31,25H19v-2h10V2h-9c-1.7,0-3,1.3-3,3h-2c0-2.8,2.2-5,5-5h11V25z"/>
</svg>
